%TF.GenerationSoftware,KiCad,Pcbnew,(6.0.7)*%
%TF.CreationDate,2024-10-25T16:04:42-07:00*%
%TF.ProjectId,segment_blinky,7365676d-656e-4745-9f62-6c696e6b792e,rev?*%
%TF.SameCoordinates,Original*%
%TF.FileFunction,Legend,Top*%
%TF.FilePolarity,Positive*%
%FSLAX46Y46*%
G04 Gerber Fmt 4.6, Leading zero omitted, Abs format (unit mm)*
G04 Created by KiCad (PCBNEW (6.0.7)) date 2024-10-25 16:04:42*
%MOMM*%
%LPD*%
G01*
G04 APERTURE LIST*
%ADD10C,0.100000*%
%ADD11C,0.120000*%
G04 APERTURE END LIST*
D10*
X101607742Y-65728461D02*
X101774409Y-66228461D01*
X101941075Y-65728461D01*
X101952427Y-73403614D02*
X101904808Y-73379804D01*
X101833379Y-73379804D01*
X101761951Y-73403614D01*
X101714332Y-73451233D01*
X101690522Y-73498852D01*
X101666713Y-73594090D01*
X101666713Y-73665518D01*
X101690522Y-73760756D01*
X101714332Y-73808375D01*
X101761951Y-73855994D01*
X101833379Y-73879804D01*
X101880998Y-73879804D01*
X101952427Y-73855994D01*
X101976236Y-73832185D01*
X101976236Y-73665518D01*
X101880998Y-73665518D01*
X101654706Y-68878509D02*
X101654706Y-68378509D01*
X101773754Y-68378509D01*
X101845182Y-68402319D01*
X101892801Y-68449938D01*
X101916611Y-68497557D01*
X101940420Y-68592795D01*
X101940420Y-68664223D01*
X101916611Y-68759461D01*
X101892801Y-68807080D01*
X101845182Y-68854699D01*
X101773754Y-68878509D01*
X101654706Y-68878509D01*
X154100770Y-68803282D02*
X154100770Y-68303282D01*
X154219818Y-68303282D01*
X154291246Y-68327092D01*
X154338865Y-68374711D01*
X154362675Y-68422330D01*
X154386484Y-68517568D01*
X154386484Y-68588996D01*
X154362675Y-68684234D01*
X154338865Y-68731853D01*
X154291246Y-68779472D01*
X154219818Y-68803282D01*
X154100770Y-68803282D01*
X154372556Y-71313800D02*
X154348747Y-71337609D01*
X154277318Y-71361419D01*
X154229699Y-71361419D01*
X154158271Y-71337609D01*
X154110652Y-71289990D01*
X154086842Y-71242371D01*
X154063033Y-71147133D01*
X154063033Y-71075705D01*
X154086842Y-70980467D01*
X154110652Y-70932848D01*
X154158271Y-70885229D01*
X154229699Y-70861419D01*
X154277318Y-70861419D01*
X154348747Y-70885229D01*
X154372556Y-70909038D01*
X154364665Y-73417959D02*
X154317046Y-73394149D01*
X154245617Y-73394149D01*
X154174189Y-73417959D01*
X154126570Y-73465578D01*
X154102760Y-73513197D01*
X154078951Y-73608435D01*
X154078951Y-73679863D01*
X154102760Y-73775101D01*
X154126570Y-73822720D01*
X154174189Y-73870339D01*
X154245617Y-73894149D01*
X154293236Y-73894149D01*
X154364665Y-73870339D01*
X154388474Y-73846530D01*
X154388474Y-73679863D01*
X154293236Y-73679863D01*
X101945480Y-71298570D02*
X101921671Y-71322379D01*
X101850242Y-71346189D01*
X101802623Y-71346189D01*
X101731195Y-71322379D01*
X101683576Y-71274760D01*
X101659766Y-71227141D01*
X101635957Y-71131903D01*
X101635957Y-71060475D01*
X101659766Y-70965237D01*
X101683576Y-70917618D01*
X101731195Y-70869999D01*
X101802623Y-70846189D01*
X101850242Y-70846189D01*
X101921671Y-70869999D01*
X101945480Y-70893808D01*
X154035210Y-65794046D02*
X154201877Y-66294046D01*
X154368543Y-65794046D01*
D11*
%TO.C,D7*%
X126488607Y-57227104D02*
X125801468Y-57093537D01*
%TO.C,D6*%
X127158134Y-54049720D02*
X126470995Y-53916153D01*
%TO.C,D42*%
X150513850Y-77614054D02*
X149826711Y-77480487D01*
%TO.C,D36*%
X155077203Y-54057716D02*
X154390064Y-53924149D01*
%TO.C,D24*%
X105218215Y-62503131D02*
X105905354Y-62636698D01*
%TO.C,D14*%
X121764809Y-81085374D02*
X121077670Y-80951807D01*
%TO.C,D26*%
X106555012Y-55852109D02*
X107242151Y-55985676D01*
%TO.C,D50*%
X130557888Y-75295514D02*
X131245027Y-75429081D01*
%TO.C,D8*%
X125860089Y-60478254D02*
X125172950Y-60344687D01*
%TO.C,D15*%
X118310309Y-86230674D02*
X118310309Y-85530674D01*
%TO.C,D59*%
X146319367Y-66712015D02*
X146319367Y-67412015D01*
%TO.C,D22*%
X103284124Y-71644149D02*
X103971263Y-71777716D01*
%TO.C,D55*%
X134485207Y-56009307D02*
X135172346Y-56142874D01*
%TO.C,D39*%
X153274407Y-63688288D02*
X152587268Y-63554721D01*
%TO.C,D44*%
X146156581Y-86265510D02*
X146156581Y-85565510D01*
%TO.C,D48*%
X129114473Y-82646514D02*
X129801612Y-82780081D01*
%TO.C,D9*%
X125237289Y-63676674D02*
X124547923Y-63555120D01*
%TO.C,D46*%
X138984507Y-86211787D02*
X138984507Y-85511787D01*
%TO.C,D11*%
X123930337Y-70781893D02*
X123243198Y-70648326D01*
%TO.C,D4*%
X117412765Y-50964015D02*
X117412765Y-51664015D01*
%TO.C,D49*%
X129832622Y-79022575D02*
X130519761Y-79156142D01*
%TO.C,D38*%
X153875237Y-60493735D02*
X153188098Y-60360168D01*
%TO.C,J2*%
X154570000Y-67270000D02*
X154570000Y-74950000D01*
X154570000Y-64670000D02*
X155900000Y-64670000D01*
X154570000Y-74950000D02*
X157230000Y-74950000D01*
X154570000Y-67270000D02*
X157230000Y-67270000D01*
X157230000Y-67270000D02*
X157230000Y-74950000D01*
X154570000Y-66000000D02*
X154570000Y-64670000D01*
%TO.C,D53*%
X133225347Y-62515732D02*
X133912486Y-62649299D01*
%TO.C,D54*%
X133859888Y-59269025D02*
X134547027Y-59402592D01*
%TO.C,D21*%
X102581254Y-75347681D02*
X103268393Y-75481248D01*
%TO.C,D56*%
X136071627Y-66698585D02*
X136071627Y-67398585D01*
%TO.C,D17*%
X110822230Y-86232793D02*
X110822230Y-85532793D01*
%TO.C,D28*%
X111596099Y-66692268D02*
X111596099Y-67392268D01*
%TO.C,D45*%
X142610836Y-86256556D02*
X142610836Y-85556556D01*
%TO.C,D43*%
X149787666Y-81037583D02*
X149100527Y-80904016D01*
%TO.C,D47*%
X135402946Y-86229695D02*
X135402946Y-85529695D01*
%TO.C,D27*%
X108070487Y-66658368D02*
X108070487Y-67358368D01*
%TO.C,D60*%
X151988832Y-84653224D02*
X151988832Y-85353224D01*
%TO.C,D57*%
X139442771Y-66712015D02*
X139442771Y-67412015D01*
%TO.C,D30*%
X118655799Y-66692268D02*
X118655799Y-67392268D01*
%TO.C,D31*%
X123990246Y-84649240D02*
X123990246Y-85349240D01*
%TO.C,D35*%
X149200953Y-50990609D02*
X149200953Y-51690609D01*
%TO.C,D34*%
X145583578Y-50945840D02*
X145583578Y-51645840D01*
%TO.C,D32*%
X138232425Y-50981656D02*
X138232425Y-51681656D01*
%TO.C,D58*%
X142827345Y-66738877D02*
X142827345Y-67438877D01*
%TO.C,D37*%
X154502010Y-57288239D02*
X153814871Y-57154672D01*
%TO.C,D12*%
X123212785Y-74216919D02*
X122525646Y-74083352D01*
%TO.C,D2*%
X110213829Y-51004308D02*
X110213829Y-51704308D01*
%TO.C,D33*%
X141885617Y-50999563D02*
X141885617Y-51699563D01*
%TO.C,D51*%
X131289468Y-71647181D02*
X131976607Y-71780748D01*
%TO.C,D19*%
X101120064Y-82780254D02*
X101807203Y-82913821D01*
%TO.C,D29*%
X115155612Y-66700743D02*
X115155612Y-67400743D01*
%TO.C,D52*%
X132546037Y-65734775D02*
X133233176Y-65868342D01*
%TO.C,D13*%
X122462745Y-77712869D02*
X121775606Y-77579302D01*
%TO.C,D5*%
X120998803Y-50990877D02*
X120998803Y-51690877D01*
%TO.C,J1*%
X98770000Y-74950000D02*
X101430000Y-74950000D01*
X98770000Y-67270000D02*
X101430000Y-67270000D01*
X101430000Y-67270000D02*
X101430000Y-74950000D01*
X98770000Y-64670000D02*
X100100000Y-64670000D01*
X98770000Y-67270000D02*
X98770000Y-74950000D01*
X98770000Y-66000000D02*
X98770000Y-64670000D01*
%TO.C,D41*%
X151194347Y-74265295D02*
X150507208Y-74131728D01*
%TO.C,D23*%
X104540715Y-65863704D02*
X105227854Y-65997271D01*
%TO.C,D18*%
X107103811Y-86251862D02*
X107103811Y-85551862D01*
%TO.C,D25*%
X105895967Y-59180920D02*
X106583106Y-59314487D01*
%TO.C,D16*%
X114597856Y-86213724D02*
X114597856Y-85513724D01*
%TO.C,D40*%
X151865622Y-70857150D02*
X151178483Y-70723583D01*
%TO.C,D20*%
X101829960Y-79022525D02*
X102517099Y-79156092D01*
%TO.C,D3*%
X113786436Y-51017739D02*
X113786436Y-51717739D01*
%TD*%
M02*
