%TF.GenerationSoftware,KiCad,Pcbnew,(6.0.7)*%
%TF.CreationDate,2024-10-25T16:04:41-07:00*%
%TF.ProjectId,segment_blinky,7365676d-656e-4745-9f62-6c696e6b792e,rev?*%
%TF.SameCoordinates,Original*%
%TF.FileFunction,Copper,L2,Bot*%
%TF.FilePolarity,Positive*%
%FSLAX46Y46*%
G04 Gerber Fmt 4.6, Leading zero omitted, Abs format (unit mm)*
G04 Created by KiCad (PCBNEW (6.0.7)) date 2024-10-25 16:04:41*
%MOMM*%
%LPD*%
G01*
G04 APERTURE LIST*
%ADD10C,0.250000*%
%TA.AperFunction,NonConductor*%
%ADD11C,0.250000*%
%TD*%
%TA.AperFunction,ComponentPad*%
%ADD12R,1.700000X1.700000*%
%TD*%
%TA.AperFunction,ComponentPad*%
%ADD13O,1.700000X1.700000*%
%TD*%
%TA.AperFunction,ViaPad*%
%ADD14C,0.800000*%
%TD*%
%TA.AperFunction,Conductor*%
%ADD15C,0.250000*%
%TD*%
G04 APERTURE END LIST*
D10*
D11*
X118061714Y-73729380D02*
X118061714Y-72729380D01*
X118061714Y-73205571D02*
X117490285Y-73205571D01*
X117490285Y-73729380D02*
X117490285Y-72729380D01*
X117061714Y-73443666D02*
X116585523Y-73443666D01*
X117156952Y-73729380D02*
X116823619Y-72729380D01*
X116490285Y-73729380D01*
X116156952Y-73729380D02*
X116156952Y-72729380D01*
X115585523Y-73729380D02*
X116014095Y-73157952D01*
X115585523Y-72729380D02*
X116156952Y-73300809D01*
X115252190Y-72729380D02*
X114585523Y-72729380D01*
X115252190Y-73729380D01*
X114585523Y-73729380D01*
X113442666Y-73729380D02*
X113442666Y-72729380D01*
X113442666Y-73205571D02*
X112871238Y-73205571D01*
X112871238Y-73729380D02*
X112871238Y-72729380D01*
X111966476Y-73729380D02*
X111966476Y-73205571D01*
X112014095Y-73110333D01*
X112109333Y-73062714D01*
X112299809Y-73062714D01*
X112395047Y-73110333D01*
X111966476Y-73681761D02*
X112061714Y-73729380D01*
X112299809Y-73729380D01*
X112395047Y-73681761D01*
X112442666Y-73586523D01*
X112442666Y-73491285D01*
X112395047Y-73396047D01*
X112299809Y-73348428D01*
X112061714Y-73348428D01*
X111966476Y-73300809D01*
X111490285Y-73062714D02*
X111490285Y-74062714D01*
X111490285Y-73110333D02*
X111395047Y-73062714D01*
X111204571Y-73062714D01*
X111109333Y-73110333D01*
X111061714Y-73157952D01*
X111014095Y-73253190D01*
X111014095Y-73538904D01*
X111061714Y-73634142D01*
X111109333Y-73681761D01*
X111204571Y-73729380D01*
X111395047Y-73729380D01*
X111490285Y-73681761D01*
X110585523Y-73062714D02*
X110585523Y-74062714D01*
X110585523Y-73110333D02*
X110490285Y-73062714D01*
X110299809Y-73062714D01*
X110204571Y-73110333D01*
X110156952Y-73157952D01*
X110109333Y-73253190D01*
X110109333Y-73538904D01*
X110156952Y-73634142D01*
X110204571Y-73681761D01*
X110299809Y-73729380D01*
X110490285Y-73729380D01*
X110585523Y-73681761D01*
X109299809Y-73681761D02*
X109395047Y-73729380D01*
X109585523Y-73729380D01*
X109680761Y-73681761D01*
X109728380Y-73586523D01*
X109728380Y-73205571D01*
X109680761Y-73110333D01*
X109585523Y-73062714D01*
X109395047Y-73062714D01*
X109299809Y-73110333D01*
X109252190Y-73205571D01*
X109252190Y-73300809D01*
X109728380Y-73396047D01*
X108823619Y-73062714D02*
X108823619Y-73729380D01*
X108823619Y-73157952D02*
X108776000Y-73110333D01*
X108680761Y-73062714D01*
X108537904Y-73062714D01*
X108442666Y-73110333D01*
X108395047Y-73205571D01*
X108395047Y-73729380D01*
X107490285Y-73729380D02*
X107490285Y-72729380D01*
X107490285Y-73681761D02*
X107585523Y-73729380D01*
X107776000Y-73729380D01*
X107871238Y-73681761D01*
X107918857Y-73634142D01*
X107966476Y-73538904D01*
X107966476Y-73253190D01*
X107918857Y-73157952D01*
X107871238Y-73110333D01*
X107776000Y-73062714D01*
X107585523Y-73062714D01*
X107490285Y-73110333D01*
X117728380Y-75434619D02*
X116966476Y-75434619D01*
X116966476Y-75434619D02*
X116204571Y-75434619D01*
X116204571Y-75434619D02*
X115442666Y-75434619D01*
X115442666Y-75434619D02*
X114680761Y-75434619D01*
X114680761Y-75434619D02*
X113918857Y-75434619D01*
X113918857Y-75434619D02*
X113156952Y-75434619D01*
X113156952Y-75434619D02*
X112395047Y-75434619D01*
X112395047Y-75434619D02*
X111633142Y-75434619D01*
X111633142Y-75434619D02*
X110871238Y-75434619D01*
X110871238Y-75434619D02*
X110109333Y-75434619D01*
X110109333Y-75434619D02*
X109347428Y-75434619D01*
X109347428Y-75434619D02*
X108585523Y-75434619D01*
X108585523Y-75434619D02*
X107823619Y-75434619D01*
X117061714Y-76949380D02*
X117633142Y-76949380D01*
X117347428Y-76949380D02*
X117347428Y-75949380D01*
X117442666Y-76092238D01*
X117537904Y-76187476D01*
X117633142Y-76235095D01*
X116442666Y-75949380D02*
X116347428Y-75949380D01*
X116252190Y-75997000D01*
X116204571Y-76044619D01*
X116156952Y-76139857D01*
X116109333Y-76330333D01*
X116109333Y-76568428D01*
X116156952Y-76758904D01*
X116204571Y-76854142D01*
X116252190Y-76901761D01*
X116347428Y-76949380D01*
X116442666Y-76949380D01*
X116537904Y-76901761D01*
X116585523Y-76854142D01*
X116633142Y-76758904D01*
X116680761Y-76568428D01*
X116680761Y-76330333D01*
X116633142Y-76139857D01*
X116585523Y-76044619D01*
X116537904Y-75997000D01*
X116442666Y-75949380D01*
X115680761Y-76568428D02*
X114918857Y-76568428D01*
X114490285Y-76044619D02*
X114442666Y-75997000D01*
X114347428Y-75949380D01*
X114109333Y-75949380D01*
X114014095Y-75997000D01*
X113966476Y-76044619D01*
X113918857Y-76139857D01*
X113918857Y-76235095D01*
X113966476Y-76377952D01*
X114537904Y-76949380D01*
X113918857Y-76949380D01*
X113014095Y-75949380D02*
X113490285Y-75949380D01*
X113537904Y-76425571D01*
X113490285Y-76377952D01*
X113395047Y-76330333D01*
X113156952Y-76330333D01*
X113061714Y-76377952D01*
X113014095Y-76425571D01*
X112966476Y-76520809D01*
X112966476Y-76758904D01*
X113014095Y-76854142D01*
X113061714Y-76901761D01*
X113156952Y-76949380D01*
X113395047Y-76949380D01*
X113490285Y-76901761D01*
X113537904Y-76854142D01*
X112537904Y-76568428D02*
X111776000Y-76568428D01*
X111347428Y-76044619D02*
X111299809Y-75997000D01*
X111204571Y-75949380D01*
X110966476Y-75949380D01*
X110871238Y-75997000D01*
X110823619Y-76044619D01*
X110776000Y-76139857D01*
X110776000Y-76235095D01*
X110823619Y-76377952D01*
X111395047Y-76949380D01*
X110776000Y-76949380D01*
X110156952Y-75949380D02*
X110061714Y-75949380D01*
X109966476Y-75997000D01*
X109918857Y-76044619D01*
X109871238Y-76139857D01*
X109823619Y-76330333D01*
X109823619Y-76568428D01*
X109871238Y-76758904D01*
X109918857Y-76854142D01*
X109966476Y-76901761D01*
X110061714Y-76949380D01*
X110156952Y-76949380D01*
X110252190Y-76901761D01*
X110299809Y-76854142D01*
X110347428Y-76758904D01*
X110395047Y-76568428D01*
X110395047Y-76330333D01*
X110347428Y-76139857D01*
X110299809Y-76044619D01*
X110252190Y-75997000D01*
X110156952Y-75949380D01*
X109442666Y-76044619D02*
X109395047Y-75997000D01*
X109299809Y-75949380D01*
X109061714Y-75949380D01*
X108966476Y-75997000D01*
X108918857Y-76044619D01*
X108871238Y-76139857D01*
X108871238Y-76235095D01*
X108918857Y-76377952D01*
X109490285Y-76949380D01*
X108871238Y-76949380D01*
X108014095Y-76282714D02*
X108014095Y-76949380D01*
X108252190Y-75901761D02*
X108490285Y-76616047D01*
X107871238Y-76616047D01*
X116990285Y-77559380D02*
X116371238Y-77559380D01*
X116704571Y-77940333D01*
X116561714Y-77940333D01*
X116466476Y-77987952D01*
X116418857Y-78035571D01*
X116371238Y-78130809D01*
X116371238Y-78368904D01*
X116418857Y-78464142D01*
X116466476Y-78511761D01*
X116561714Y-78559380D01*
X116847428Y-78559380D01*
X116942666Y-78511761D01*
X116990285Y-78464142D01*
X115942666Y-78464142D02*
X115895047Y-78511761D01*
X115942666Y-78559380D01*
X115990285Y-78511761D01*
X115942666Y-78464142D01*
X115942666Y-78559380D01*
X115942666Y-77940333D02*
X115895047Y-77987952D01*
X115942666Y-78035571D01*
X115990285Y-77987952D01*
X115942666Y-77940333D01*
X115942666Y-78035571D01*
X114990285Y-77559380D02*
X115466476Y-77559380D01*
X115514095Y-78035571D01*
X115466476Y-77987952D01*
X115371238Y-77940333D01*
X115133142Y-77940333D01*
X115037904Y-77987952D01*
X114990285Y-78035571D01*
X114942666Y-78130809D01*
X114942666Y-78368904D01*
X114990285Y-78464142D01*
X115037904Y-78511761D01*
X115133142Y-78559380D01*
X115371238Y-78559380D01*
X115466476Y-78511761D01*
X115514095Y-78464142D01*
X114085523Y-77559380D02*
X114276000Y-77559380D01*
X114371238Y-77607000D01*
X114418857Y-77654619D01*
X114514095Y-77797476D01*
X114561714Y-77987952D01*
X114561714Y-78368904D01*
X114514095Y-78464142D01*
X114466476Y-78511761D01*
X114371238Y-78559380D01*
X114180761Y-78559380D01*
X114085523Y-78511761D01*
X114037904Y-78464142D01*
X113990285Y-78368904D01*
X113990285Y-78130809D01*
X114037904Y-78035571D01*
X114085523Y-77987952D01*
X114180761Y-77940333D01*
X114371238Y-77940333D01*
X114466476Y-77987952D01*
X114514095Y-78035571D01*
X114561714Y-78130809D01*
X113561714Y-78464142D02*
X113514095Y-78511761D01*
X113561714Y-78559380D01*
X113609333Y-78511761D01*
X113561714Y-78464142D01*
X113561714Y-78559380D01*
X113561714Y-77940333D02*
X113514095Y-77987952D01*
X113561714Y-78035571D01*
X113609333Y-77987952D01*
X113561714Y-77940333D01*
X113561714Y-78035571D01*
X113180761Y-77559380D02*
X112561714Y-77559380D01*
X112895047Y-77940333D01*
X112752190Y-77940333D01*
X112656952Y-77987952D01*
X112609333Y-78035571D01*
X112561714Y-78130809D01*
X112561714Y-78368904D01*
X112609333Y-78464142D01*
X112656952Y-78511761D01*
X112752190Y-78559380D01*
X113037904Y-78559380D01*
X113133142Y-78511761D01*
X113180761Y-78464142D01*
X112228380Y-77559380D02*
X111609333Y-77559380D01*
X111942666Y-77940333D01*
X111799809Y-77940333D01*
X111704571Y-77987952D01*
X111656952Y-78035571D01*
X111609333Y-78130809D01*
X111609333Y-78368904D01*
X111656952Y-78464142D01*
X111704571Y-78511761D01*
X111799809Y-78559380D01*
X112085523Y-78559380D01*
X112180761Y-78511761D01*
X112228380Y-78464142D01*
X110418857Y-77892714D02*
X110418857Y-78892714D01*
X110418857Y-77940333D02*
X110323619Y-77892714D01*
X110133142Y-77892714D01*
X110037904Y-77940333D01*
X109990285Y-77987952D01*
X109942666Y-78083190D01*
X109942666Y-78368904D01*
X109990285Y-78464142D01*
X110037904Y-78511761D01*
X110133142Y-78559380D01*
X110323619Y-78559380D01*
X110418857Y-78511761D01*
X109514095Y-78559380D02*
X109514095Y-77892714D01*
X109514095Y-77987952D02*
X109466476Y-77940333D01*
X109371238Y-77892714D01*
X109228380Y-77892714D01*
X109133142Y-77940333D01*
X109085523Y-78035571D01*
X109085523Y-78559380D01*
X109085523Y-78035571D02*
X109037904Y-77940333D01*
X108942666Y-77892714D01*
X108799809Y-77892714D01*
X108704571Y-77940333D01*
X108656952Y-78035571D01*
X108656952Y-78559380D01*
D12*
%TO.P,J2,1,Pin_1*%
%TO.N,vcc*%
X155900000Y-66000000D03*
D13*
%TO.P,J2,2,Pin_2*%
%TO.N,DO*%
X155900000Y-68540000D03*
%TO.P,J2,3,Pin_3*%
%TO.N,CO*%
X155900000Y-71080000D03*
%TO.P,J2,4,Pin_4*%
%TO.N,gnd*%
X155900000Y-73620000D03*
%TD*%
D12*
%TO.P,J1,1,Pin_1*%
%TO.N,vcc*%
X100100000Y-66000000D03*
D13*
%TO.P,J1,2,Pin_2*%
%TO.N,DI*%
X100100000Y-68540000D03*
%TO.P,J1,3,Pin_3*%
%TO.N,CI*%
X100100000Y-71080000D03*
%TO.P,J1,4,Pin_4*%
%TO.N,gnd*%
X100100000Y-73620000D03*
%TD*%
D14*
%TO.N,gnd*%
X155448000Y-62230000D03*
X103886000Y-60452000D03*
X121920000Y-55626000D03*
X143510000Y-82042000D03*
X134366000Y-82296000D03*
X156718000Y-86868000D03*
X102108000Y-58674000D03*
X126746000Y-63754000D03*
X112522000Y-87630000D03*
X149606000Y-55880000D03*
X148590000Y-86360000D03*
X148336000Y-62484000D03*
X156210000Y-54864000D03*
X116332000Y-87376000D03*
X128016000Y-55626000D03*
X116078000Y-81788000D03*
X112522000Y-82042000D03*
X130048000Y-86360000D03*
X155448000Y-83566000D03*
X120142000Y-65786000D03*
%TO.N,vcc*%
X136144000Y-82804000D03*
X155194000Y-87884000D03*
X138176000Y-56134000D03*
X147320000Y-75946000D03*
X108204000Y-64516000D03*
X126746000Y-87884000D03*
X148590000Y-70358000D03*
X112996099Y-70070099D03*
X120055799Y-70952201D03*
X122428000Y-60960000D03*
X140716000Y-70104000D03*
X150622000Y-57912000D03*
X118872000Y-78486000D03*
X139700000Y-54610000D03*
X149606000Y-64262000D03*
X145779136Y-82058864D03*
X109728000Y-55372000D03*
X147044953Y-54588953D03*
X109474000Y-82804000D03*
X134620000Y-76962000D03*
X106426000Y-76962000D03*
X135876100Y-70625900D03*
X118872000Y-54356000D03*
%TO.N,Net-(D26-Pad5)*%
X108961701Y-53090299D03*
X107188000Y-68580000D03*
%TO.N,Net-(D26-Pad6)*%
X107653551Y-52794500D03*
X107442000Y-67310000D03*
%TO.N,Net-(D30-Pad5)*%
X122174000Y-68326000D03*
X123190000Y-86360000D03*
%TO.N,Net-(D30-Pad6)*%
X123190000Y-84836000D03*
X122174000Y-67056000D03*
%TO.N,Net-(D31-Pad5)*%
X127933042Y-86499971D03*
X133350000Y-52578000D03*
%TO.N,Net-(D31-Pad6)*%
X127924624Y-85191477D03*
X131826000Y-52070000D03*
%TO.N,Net-(D55-Pad5)*%
X136398000Y-53086000D03*
X134620000Y-68548585D03*
%TO.N,Net-(D55-Pad6)*%
X135413370Y-67311719D03*
X135890000Y-52070000D03*
%TO.N,Net-(D59-Pad5)*%
X151130000Y-86614000D03*
X149860000Y-68580000D03*
%TO.N,Net-(D59-Pad6)*%
X150114000Y-67310000D03*
X151130000Y-85090000D03*
%TD*%
D15*
%TO.N,Net-(D31-Pad6)*%
X128168523Y-85191477D02*
X127924624Y-85191477D01*
X131826000Y-52070000D02*
X131826000Y-81534000D01*
X131826000Y-81534000D02*
X128168523Y-85191477D01*
%TO.N,Net-(D31-Pad5)*%
X132276000Y-52890000D02*
X133038000Y-52890000D01*
X133038000Y-52890000D02*
X133350000Y-52578000D01*
%TO.N,gnd*%
X130048000Y-86360000D02*
X133350000Y-83312000D01*
X133350000Y-83312000D02*
X134366000Y-82296000D01*
X148590000Y-86360000D02*
X143764000Y-82296000D01*
X143764000Y-82296000D02*
X143510000Y-82042000D01*
X120142000Y-65786000D02*
X126746000Y-63754000D01*
X116332000Y-82042000D02*
X116078000Y-81788000D01*
X112522000Y-87630000D02*
X112522000Y-82042000D01*
X116332000Y-87376000D02*
X116332000Y-82042000D01*
X121920000Y-55626000D02*
X128016000Y-55626000D01*
X155448000Y-83566000D02*
X156718000Y-84836000D01*
X150622000Y-54864000D02*
X149606000Y-55880000D01*
X156210000Y-54864000D02*
X150622000Y-54864000D01*
X148336000Y-62484000D02*
X155194000Y-62484000D01*
X155194000Y-62484000D02*
X155448000Y-62230000D01*
X156718000Y-84836000D02*
X156718000Y-86868000D01*
X103886000Y-60452000D02*
X102108000Y-58674000D01*
%TO.N,vcc*%
X138176000Y-56134000D02*
X139700000Y-54610000D01*
%TO.N,Net-(D26-Pad5)*%
X108961701Y-53090299D02*
X106680000Y-55372000D01*
X106680000Y-55372000D02*
X106680000Y-68326000D01*
X106934000Y-68580000D02*
X107188000Y-68580000D01*
X106680000Y-68326000D02*
X106934000Y-68580000D01*
%TO.N,Net-(D26-Pad6)*%
X109220000Y-52324000D02*
X109728000Y-52832000D01*
X107696000Y-55372000D02*
X107696000Y-55880000D01*
X107479000Y-56097000D02*
X107479000Y-67273000D01*
X108975305Y-54102000D02*
X108966000Y-54102000D01*
X109728000Y-53349305D02*
X108975305Y-54102000D01*
X108966000Y-54102000D02*
X107696000Y-55372000D01*
X109728000Y-52832000D02*
X109728000Y-53349305D01*
X107696000Y-55880000D02*
X107479000Y-56097000D01*
X107479000Y-67273000D02*
X107442000Y-67310000D01*
X108124051Y-52324000D02*
X109220000Y-52324000D01*
X107653551Y-52794500D02*
X108124051Y-52324000D01*
%TO.N,Net-(D30-Pad5)*%
X123756000Y-83244695D02*
X122465000Y-84535695D01*
X122465000Y-84535695D02*
X122465000Y-85635000D01*
X123444000Y-68326000D02*
X123756000Y-68638000D01*
X122174000Y-68326000D02*
X123444000Y-68326000D01*
X123756000Y-70358000D02*
X123756000Y-83244695D01*
X123756000Y-68638000D02*
X123756000Y-70358000D01*
X122465000Y-85635000D02*
X123190000Y-86360000D01*
%TO.N,Net-(D30-Pad6)*%
X123190000Y-84582000D02*
X123190000Y-84836000D01*
X124206000Y-67056000D02*
X124206000Y-83566000D01*
X123444000Y-84328000D02*
X123190000Y-84582000D01*
X122174000Y-67056000D02*
X124206000Y-67056000D01*
X124206000Y-83566000D02*
X123444000Y-84328000D01*
%TO.N,Net-(D31-Pad5)*%
X132276000Y-82354000D02*
X128130029Y-86499971D01*
X128130029Y-86499971D02*
X127933042Y-86499971D01*
X132276000Y-52890000D02*
X132276000Y-82354000D01*
%TO.N,Net-(D55-Pad5)*%
X134620000Y-68548585D02*
X135413415Y-54070585D01*
X135413415Y-54070585D02*
X136398000Y-53086000D01*
%TO.N,Net-(D55-Pad6)*%
X135382000Y-67310000D02*
X135411651Y-67310000D01*
X136153305Y-54356000D02*
X136144000Y-54356000D01*
X136144000Y-54356000D02*
X135890000Y-54610000D01*
X137160000Y-53349305D02*
X136153305Y-54356000D01*
X135890000Y-54610000D02*
X135890000Y-54864000D01*
X136652000Y-52070000D02*
X137160000Y-52578000D01*
X135411651Y-67310000D02*
X135413370Y-67311719D01*
X135890000Y-54864000D02*
X135382000Y-67310000D01*
X135890000Y-52070000D02*
X136652000Y-52070000D01*
X137160000Y-52578000D02*
X137160000Y-53349305D01*
%TO.N,Net-(D59-Pad5)*%
X149860000Y-68580000D02*
X150368000Y-69088000D01*
X150368000Y-86106000D02*
X150876000Y-86614000D01*
X150876000Y-86614000D02*
X151130000Y-86614000D01*
X150368000Y-69088000D02*
X150368000Y-86106000D01*
%TO.N,Net-(D59-Pad6)*%
X150114000Y-67310000D02*
X151130000Y-68326000D01*
X151130000Y-68326000D02*
X151130000Y-85090000D01*
%TD*%
%TA.AperFunction,Conductor*%
%TO.N,vcc*%
G36*
X157433621Y-50528502D02*
G01*
X157480114Y-50582158D01*
X157491500Y-50634500D01*
X157491500Y-64985603D01*
X157471498Y-65053724D01*
X157417842Y-65100217D01*
X157347568Y-65110321D01*
X157282988Y-65080827D01*
X157247518Y-65029833D01*
X157203324Y-64911946D01*
X157194786Y-64896351D01*
X157118285Y-64794276D01*
X157105724Y-64781715D01*
X157003649Y-64705214D01*
X156988054Y-64696676D01*
X156867606Y-64651522D01*
X156852351Y-64647895D01*
X156801486Y-64642369D01*
X156794672Y-64642000D01*
X156172115Y-64642000D01*
X156156876Y-64646475D01*
X156155671Y-64647865D01*
X156154000Y-64655548D01*
X156154000Y-66128000D01*
X156133998Y-66196121D01*
X156080342Y-66242614D01*
X156028000Y-66254000D01*
X154560116Y-66254000D01*
X154544877Y-66258475D01*
X154543672Y-66259865D01*
X154542001Y-66267548D01*
X154542001Y-66894669D01*
X154542371Y-66901490D01*
X154547895Y-66952352D01*
X154551521Y-66967604D01*
X154596676Y-67088054D01*
X154605214Y-67103649D01*
X154681715Y-67205724D01*
X154694276Y-67218285D01*
X154796351Y-67294786D01*
X154811946Y-67303324D01*
X154920827Y-67344142D01*
X154977591Y-67386784D01*
X155002291Y-67453345D01*
X154987083Y-67522694D01*
X154967691Y-67549175D01*
X154844200Y-67678401D01*
X154840629Y-67682138D01*
X154837715Y-67686410D01*
X154837714Y-67686411D01*
X154825409Y-67704450D01*
X154714743Y-67866680D01*
X154671087Y-67960729D01*
X154635151Y-68038148D01*
X154620688Y-68069305D01*
X154560989Y-68284570D01*
X154537251Y-68506695D01*
X154537548Y-68511848D01*
X154537548Y-68511851D01*
X154547893Y-68691271D01*
X154550110Y-68729715D01*
X154551247Y-68734761D01*
X154551248Y-68734767D01*
X154564840Y-68795077D01*
X154599222Y-68947639D01*
X154683266Y-69154616D01*
X154799987Y-69345088D01*
X154946250Y-69513938D01*
X155118126Y-69656632D01*
X155188595Y-69697811D01*
X155191445Y-69699476D01*
X155240169Y-69751114D01*
X155253240Y-69820897D01*
X155226509Y-69886669D01*
X155186055Y-69920027D01*
X155173607Y-69926507D01*
X155169474Y-69929610D01*
X155169471Y-69929612D01*
X155065064Y-70008003D01*
X154994965Y-70060635D01*
X154840629Y-70222138D01*
X154714743Y-70406680D01*
X154620688Y-70609305D01*
X154560989Y-70824570D01*
X154537251Y-71046695D01*
X154537548Y-71051848D01*
X154537548Y-71051851D01*
X154543011Y-71146590D01*
X154550110Y-71269715D01*
X154551247Y-71274761D01*
X154551248Y-71274767D01*
X154571119Y-71362939D01*
X154599222Y-71487639D01*
X154683266Y-71694616D01*
X154799987Y-71885088D01*
X154946250Y-72053938D01*
X155118126Y-72196632D01*
X155188595Y-72237811D01*
X155191445Y-72239476D01*
X155240169Y-72291114D01*
X155253240Y-72360897D01*
X155226509Y-72426669D01*
X155186055Y-72460027D01*
X155173607Y-72466507D01*
X155169474Y-72469610D01*
X155169471Y-72469612D01*
X155145247Y-72487800D01*
X154994965Y-72600635D01*
X154840629Y-72762138D01*
X154714743Y-72946680D01*
X154620688Y-73149305D01*
X154560989Y-73364570D01*
X154537251Y-73586695D01*
X154537548Y-73591848D01*
X154537548Y-73591851D01*
X154543011Y-73686590D01*
X154550110Y-73809715D01*
X154551247Y-73814761D01*
X154551248Y-73814767D01*
X154571119Y-73902939D01*
X154599222Y-74027639D01*
X154683266Y-74234616D01*
X154799987Y-74425088D01*
X154946250Y-74593938D01*
X155118126Y-74736632D01*
X155311000Y-74849338D01*
X155519692Y-74929030D01*
X155524760Y-74930061D01*
X155524763Y-74930062D01*
X155632017Y-74951883D01*
X155738597Y-74973567D01*
X155743772Y-74973757D01*
X155743774Y-74973757D01*
X155956673Y-74981564D01*
X155956677Y-74981564D01*
X155961837Y-74981753D01*
X155966957Y-74981097D01*
X155966959Y-74981097D01*
X156178288Y-74954025D01*
X156178289Y-74954025D01*
X156183416Y-74953368D01*
X156188366Y-74951883D01*
X156392429Y-74890661D01*
X156392434Y-74890659D01*
X156397384Y-74889174D01*
X156597994Y-74790896D01*
X156779860Y-74661173D01*
X156938096Y-74503489D01*
X156997594Y-74420689D01*
X157065435Y-74326277D01*
X157068453Y-74322077D01*
X157167430Y-74121811D01*
X157232370Y-73908069D01*
X157240578Y-73845725D01*
X157269301Y-73780798D01*
X157328566Y-73741707D01*
X157399558Y-73740862D01*
X157459736Y-73778533D01*
X157489995Y-73842758D01*
X157491500Y-73862172D01*
X157491500Y-84435070D01*
X157471498Y-84503191D01*
X157417842Y-84549684D01*
X157347568Y-84559788D01*
X157282988Y-84530294D01*
X157263565Y-84509131D01*
X157251570Y-84492622D01*
X157245057Y-84482707D01*
X157226575Y-84451457D01*
X157222542Y-84444637D01*
X157208218Y-84430313D01*
X157195376Y-84415278D01*
X157189423Y-84407084D01*
X157183472Y-84398893D01*
X157149406Y-84370711D01*
X157140627Y-84362722D01*
X156395122Y-83617217D01*
X156361096Y-83554905D01*
X156358907Y-83541292D01*
X156342232Y-83382635D01*
X156342232Y-83382633D01*
X156341542Y-83376072D01*
X156282527Y-83194444D01*
X156187040Y-83029056D01*
X156141744Y-82978749D01*
X156063675Y-82892045D01*
X156063674Y-82892044D01*
X156059253Y-82887134D01*
X155904752Y-82774882D01*
X155898724Y-82772198D01*
X155898722Y-82772197D01*
X155736319Y-82699891D01*
X155736318Y-82699891D01*
X155730288Y-82697206D01*
X155617721Y-82673279D01*
X155549944Y-82658872D01*
X155549939Y-82658872D01*
X155543487Y-82657500D01*
X155352513Y-82657500D01*
X155346061Y-82658872D01*
X155346056Y-82658872D01*
X155278279Y-82673279D01*
X155165712Y-82697206D01*
X155159682Y-82699891D01*
X155159681Y-82699891D01*
X154997278Y-82772197D01*
X154997276Y-82772198D01*
X154991248Y-82774882D01*
X154836747Y-82887134D01*
X154832326Y-82892044D01*
X154832325Y-82892045D01*
X154754257Y-82978749D01*
X154708960Y-83029056D01*
X154613473Y-83194444D01*
X154554458Y-83376072D01*
X154534496Y-83566000D01*
X154535186Y-83572565D01*
X154553566Y-83747437D01*
X154554458Y-83755928D01*
X154613473Y-83937556D01*
X154708960Y-84102944D01*
X154713378Y-84107851D01*
X154713379Y-84107852D01*
X154800306Y-84204394D01*
X154836747Y-84244866D01*
X154991248Y-84357118D01*
X154997276Y-84359802D01*
X154997278Y-84359803D01*
X155155647Y-84430313D01*
X155165712Y-84434794D01*
X155244105Y-84451457D01*
X155346056Y-84473128D01*
X155346061Y-84473128D01*
X155352513Y-84474500D01*
X155408406Y-84474500D01*
X155476527Y-84494502D01*
X155497501Y-84511405D01*
X156047595Y-85061499D01*
X156081621Y-85123811D01*
X156084500Y-85150594D01*
X156084500Y-86165476D01*
X156064498Y-86233597D01*
X156052142Y-86249779D01*
X155978960Y-86331056D01*
X155966039Y-86353436D01*
X155886885Y-86490535D01*
X155883473Y-86496444D01*
X155824458Y-86678072D01*
X155823768Y-86684633D01*
X155823768Y-86684635D01*
X155819497Y-86725271D01*
X155804496Y-86868000D01*
X155805186Y-86874565D01*
X155822863Y-87042749D01*
X155824458Y-87057928D01*
X155883473Y-87239556D01*
X155978960Y-87404944D01*
X155983378Y-87409851D01*
X155983379Y-87409852D01*
X156010589Y-87440072D01*
X156106747Y-87546866D01*
X156144562Y-87574340D01*
X156230207Y-87636565D01*
X156261248Y-87659118D01*
X156267276Y-87661802D01*
X156267278Y-87661803D01*
X156429681Y-87734109D01*
X156435712Y-87736794D01*
X156529112Y-87756647D01*
X156616056Y-87775128D01*
X156616061Y-87775128D01*
X156622513Y-87776500D01*
X156813487Y-87776500D01*
X156819939Y-87775128D01*
X156819944Y-87775128D01*
X156906887Y-87756647D01*
X157000288Y-87736794D01*
X157006319Y-87734109D01*
X157168722Y-87661803D01*
X157168724Y-87661802D01*
X157174752Y-87659118D01*
X157180094Y-87655237D01*
X157291439Y-87574340D01*
X157358307Y-87550481D01*
X157427458Y-87566562D01*
X157476939Y-87617476D01*
X157491500Y-87676276D01*
X157491500Y-88011500D01*
X157471498Y-88079621D01*
X157417842Y-88126114D01*
X157365500Y-88137500D01*
X117151849Y-88137500D01*
X117083728Y-88117498D01*
X117037235Y-88063842D01*
X117027131Y-87993568D01*
X117058211Y-87927192D01*
X117071040Y-87912944D01*
X117166527Y-87747556D01*
X117225542Y-87565928D01*
X117227138Y-87550749D01*
X117244814Y-87382565D01*
X117245504Y-87376000D01*
X117242273Y-87345258D01*
X117226232Y-87192635D01*
X117226232Y-87192633D01*
X117225542Y-87186072D01*
X117166527Y-87004444D01*
X117071040Y-86839056D01*
X116997863Y-86757785D01*
X116967147Y-86693779D01*
X116965500Y-86673476D01*
X116965500Y-82120767D01*
X116966027Y-82109584D01*
X116967702Y-82102091D01*
X116965562Y-82034014D01*
X116965500Y-82030055D01*
X116965500Y-82016280D01*
X116968253Y-81990086D01*
X116969504Y-81984202D01*
X116971542Y-81977928D01*
X116991504Y-81788000D01*
X116974062Y-81622045D01*
X116972232Y-81604635D01*
X116972232Y-81604633D01*
X116971542Y-81598072D01*
X116912527Y-81416444D01*
X116817040Y-81251056D01*
X116689253Y-81109134D01*
X116534752Y-80996882D01*
X116528724Y-80994198D01*
X116528722Y-80994197D01*
X116366319Y-80921891D01*
X116366318Y-80921891D01*
X116360288Y-80919206D01*
X116266888Y-80899353D01*
X116179944Y-80880872D01*
X116179939Y-80880872D01*
X116173487Y-80879500D01*
X115982513Y-80879500D01*
X115976061Y-80880872D01*
X115976056Y-80880872D01*
X115889112Y-80899353D01*
X115795712Y-80919206D01*
X115789682Y-80921891D01*
X115789681Y-80921891D01*
X115627278Y-80994197D01*
X115627276Y-80994198D01*
X115621248Y-80996882D01*
X115466747Y-81109134D01*
X115338960Y-81251056D01*
X115243473Y-81416444D01*
X115184458Y-81598072D01*
X115183768Y-81604633D01*
X115183768Y-81604635D01*
X115181938Y-81622045D01*
X115164496Y-81788000D01*
X115184458Y-81977928D01*
X115243473Y-82159556D01*
X115338960Y-82324944D01*
X115343378Y-82329851D01*
X115343379Y-82329852D01*
X115430042Y-82426101D01*
X115466747Y-82466866D01*
X115565843Y-82538864D01*
X115594705Y-82559833D01*
X115621248Y-82579118D01*
X115627278Y-82581803D01*
X115633001Y-82585107D01*
X115631845Y-82587109D01*
X115677856Y-82626229D01*
X115698500Y-82695339D01*
X115698500Y-86673476D01*
X115678498Y-86741597D01*
X115666142Y-86757779D01*
X115592960Y-86839056D01*
X115497473Y-87004444D01*
X115438458Y-87186072D01*
X115437768Y-87192633D01*
X115437768Y-87192635D01*
X115421727Y-87345258D01*
X115418496Y-87376000D01*
X115419186Y-87382565D01*
X115436863Y-87550749D01*
X115438458Y-87565928D01*
X115497473Y-87747556D01*
X115592960Y-87912944D01*
X115605789Y-87927192D01*
X115636505Y-87991198D01*
X115627740Y-88061651D01*
X115582277Y-88116182D01*
X115512151Y-88137500D01*
X113485780Y-88137500D01*
X113417659Y-88117498D01*
X113371166Y-88063842D01*
X113361062Y-87993568D01*
X113365947Y-87972563D01*
X113413503Y-87826203D01*
X113415542Y-87819928D01*
X113420107Y-87776500D01*
X113434814Y-87636565D01*
X113435504Y-87630000D01*
X113429430Y-87572206D01*
X113416232Y-87446635D01*
X113416232Y-87446633D01*
X113415542Y-87440072D01*
X113356527Y-87258444D01*
X113261040Y-87093056D01*
X113187863Y-87011785D01*
X113157147Y-86947779D01*
X113155500Y-86927476D01*
X113155500Y-82744524D01*
X113175502Y-82676403D01*
X113187858Y-82660221D01*
X113261040Y-82578944D01*
X113356527Y-82413556D01*
X113415542Y-82231928D01*
X113435504Y-82042000D01*
X113415542Y-81852072D01*
X113356527Y-81670444D01*
X113261040Y-81505056D01*
X113181254Y-81416444D01*
X113137675Y-81368045D01*
X113137674Y-81368044D01*
X113133253Y-81363134D01*
X112978752Y-81250882D01*
X112972724Y-81248198D01*
X112972722Y-81248197D01*
X112810319Y-81175891D01*
X112810318Y-81175891D01*
X112804288Y-81173206D01*
X112710888Y-81153353D01*
X112623944Y-81134872D01*
X112623939Y-81134872D01*
X112617487Y-81133500D01*
X112426513Y-81133500D01*
X112420061Y-81134872D01*
X112420056Y-81134872D01*
X112333112Y-81153353D01*
X112239712Y-81173206D01*
X112233682Y-81175891D01*
X112233681Y-81175891D01*
X112071278Y-81248197D01*
X112071276Y-81248198D01*
X112065248Y-81250882D01*
X111910747Y-81363134D01*
X111906326Y-81368044D01*
X111906325Y-81368045D01*
X111862747Y-81416444D01*
X111782960Y-81505056D01*
X111687473Y-81670444D01*
X111628458Y-81852072D01*
X111608496Y-82042000D01*
X111628458Y-82231928D01*
X111687473Y-82413556D01*
X111782960Y-82578944D01*
X111856137Y-82660215D01*
X111886853Y-82724221D01*
X111888500Y-82744524D01*
X111888500Y-86927476D01*
X111868498Y-86995597D01*
X111856142Y-87011779D01*
X111782960Y-87093056D01*
X111687473Y-87258444D01*
X111628458Y-87440072D01*
X111627768Y-87446633D01*
X111627768Y-87446635D01*
X111614570Y-87572206D01*
X111608496Y-87630000D01*
X111609186Y-87636565D01*
X111623894Y-87776500D01*
X111628458Y-87819928D01*
X111630497Y-87826203D01*
X111678053Y-87972563D01*
X111680081Y-88043531D01*
X111643418Y-88104329D01*
X111579706Y-88135655D01*
X111558220Y-88137500D01*
X98634500Y-88137500D01*
X98566379Y-88117498D01*
X98519886Y-88063842D01*
X98508500Y-88011500D01*
X98508500Y-79608000D01*
X106618691Y-79608000D01*
X118933310Y-79608000D01*
X118933310Y-71776000D01*
X106618691Y-71776000D01*
X106618691Y-79608000D01*
X98508500Y-79608000D01*
X98508500Y-73869839D01*
X98528502Y-73801718D01*
X98582158Y-73755225D01*
X98652432Y-73745121D01*
X98717012Y-73774615D01*
X98755396Y-73834341D01*
X98757417Y-73842136D01*
X98799222Y-74027639D01*
X98883266Y-74234616D01*
X98999987Y-74425088D01*
X99146250Y-74593938D01*
X99318126Y-74736632D01*
X99511000Y-74849338D01*
X99719692Y-74929030D01*
X99724760Y-74930061D01*
X99724763Y-74930062D01*
X99832017Y-74951883D01*
X99938597Y-74973567D01*
X99943772Y-74973757D01*
X99943774Y-74973757D01*
X100156673Y-74981564D01*
X100156677Y-74981564D01*
X100161837Y-74981753D01*
X100166957Y-74981097D01*
X100166959Y-74981097D01*
X100378288Y-74954025D01*
X100378289Y-74954025D01*
X100383416Y-74953368D01*
X100388366Y-74951883D01*
X100592429Y-74890661D01*
X100592434Y-74890659D01*
X100597384Y-74889174D01*
X100797994Y-74790896D01*
X100979860Y-74661173D01*
X101138096Y-74503489D01*
X101197594Y-74420689D01*
X101265435Y-74326277D01*
X101268453Y-74322077D01*
X101367430Y-74121811D01*
X101432370Y-73908069D01*
X101461529Y-73686590D01*
X101463156Y-73620000D01*
X101444852Y-73397361D01*
X101390431Y-73180702D01*
X101301354Y-72975840D01*
X101180014Y-72788277D01*
X101029670Y-72623051D01*
X101025619Y-72619852D01*
X101025615Y-72619848D01*
X100858414Y-72487800D01*
X100858410Y-72487798D01*
X100854359Y-72484598D01*
X100813053Y-72461796D01*
X100763084Y-72411364D01*
X100748312Y-72341921D01*
X100773428Y-72275516D01*
X100800780Y-72248909D01*
X100844603Y-72217650D01*
X100979860Y-72121173D01*
X101138096Y-71963489D01*
X101197594Y-71880689D01*
X101265435Y-71786277D01*
X101268453Y-71782077D01*
X101271457Y-71776000D01*
X101365136Y-71586453D01*
X101365137Y-71586451D01*
X101367430Y-71581811D01*
X101432370Y-71368069D01*
X101461529Y-71146590D01*
X101463156Y-71080000D01*
X101444852Y-70857361D01*
X101390431Y-70640702D01*
X101301354Y-70435840D01*
X101180014Y-70248277D01*
X101029670Y-70083051D01*
X101025619Y-70079852D01*
X101025615Y-70079848D01*
X100858414Y-69947800D01*
X100858410Y-69947798D01*
X100854359Y-69944598D01*
X100813053Y-69921796D01*
X100763084Y-69871364D01*
X100748312Y-69801921D01*
X100773428Y-69735516D01*
X100800780Y-69708909D01*
X100844603Y-69677650D01*
X100979860Y-69581173D01*
X101004334Y-69556785D01*
X101105759Y-69455713D01*
X101138096Y-69423489D01*
X101142487Y-69417379D01*
X101265435Y-69246277D01*
X101268453Y-69242077D01*
X101273763Y-69231334D01*
X101365136Y-69046453D01*
X101365137Y-69046451D01*
X101367430Y-69041811D01*
X101406306Y-68913856D01*
X101430865Y-68833023D01*
X101430865Y-68833021D01*
X101432370Y-68828069D01*
X101461529Y-68606590D01*
X101463156Y-68540000D01*
X101444852Y-68317361D01*
X101390431Y-68100702D01*
X101301354Y-67895840D01*
X101246505Y-67811057D01*
X101182822Y-67712617D01*
X101182820Y-67712614D01*
X101180014Y-67708277D01*
X101176540Y-67704459D01*
X101176533Y-67704450D01*
X101032435Y-67546088D01*
X101001383Y-67482242D01*
X101009779Y-67411744D01*
X101054956Y-67356976D01*
X101081400Y-67343307D01*
X101188052Y-67303325D01*
X101203649Y-67294786D01*
X101305724Y-67218285D01*
X101318285Y-67205724D01*
X101394786Y-67103649D01*
X101403324Y-67088054D01*
X101448478Y-66967606D01*
X101452105Y-66952351D01*
X101457631Y-66901486D01*
X101458000Y-66894672D01*
X101458000Y-66272115D01*
X101453525Y-66256876D01*
X101452135Y-66255671D01*
X101444452Y-66254000D01*
X99972000Y-66254000D01*
X99903879Y-66233998D01*
X99857386Y-66180342D01*
X99846000Y-66128000D01*
X99846000Y-65727885D01*
X100354000Y-65727885D01*
X100358475Y-65743124D01*
X100359865Y-65744329D01*
X100367548Y-65746000D01*
X101439884Y-65746000D01*
X101455123Y-65741525D01*
X101456328Y-65740135D01*
X101457999Y-65732452D01*
X101457999Y-65105331D01*
X101457629Y-65098510D01*
X101452105Y-65047648D01*
X101448479Y-65032396D01*
X101403324Y-64911946D01*
X101394786Y-64896351D01*
X101318285Y-64794276D01*
X101305724Y-64781715D01*
X101203649Y-64705214D01*
X101188054Y-64696676D01*
X101067606Y-64651522D01*
X101052351Y-64647895D01*
X101001486Y-64642369D01*
X100994672Y-64642000D01*
X100372115Y-64642000D01*
X100356876Y-64646475D01*
X100355671Y-64647865D01*
X100354000Y-64655548D01*
X100354000Y-65727885D01*
X99846000Y-65727885D01*
X99846000Y-64660116D01*
X99841525Y-64644877D01*
X99840135Y-64643672D01*
X99832452Y-64642001D01*
X99205331Y-64642001D01*
X99198510Y-64642371D01*
X99147648Y-64647895D01*
X99132396Y-64651521D01*
X99011946Y-64696676D01*
X98996351Y-64705214D01*
X98894276Y-64781715D01*
X98881715Y-64794276D01*
X98805214Y-64896351D01*
X98796676Y-64911946D01*
X98752482Y-65029833D01*
X98709840Y-65086597D01*
X98643279Y-65111297D01*
X98573930Y-65096090D01*
X98523812Y-65045804D01*
X98508500Y-64985603D01*
X98508500Y-58674000D01*
X101194496Y-58674000D01*
X101214458Y-58863928D01*
X101273473Y-59045556D01*
X101368960Y-59210944D01*
X101496747Y-59352866D01*
X101651248Y-59465118D01*
X101657276Y-59467802D01*
X101657278Y-59467803D01*
X101744407Y-59506595D01*
X101825712Y-59542794D01*
X101919112Y-59562647D01*
X102006056Y-59581128D01*
X102006061Y-59581128D01*
X102012513Y-59582500D01*
X102068406Y-59582500D01*
X102136527Y-59602502D01*
X102157501Y-59619405D01*
X102938878Y-60400782D01*
X102972904Y-60463094D01*
X102975092Y-60476703D01*
X102992458Y-60641928D01*
X103051473Y-60823556D01*
X103146960Y-60988944D01*
X103274747Y-61130866D01*
X103429248Y-61243118D01*
X103435276Y-61245802D01*
X103435278Y-61245803D01*
X103597681Y-61318109D01*
X103603712Y-61320794D01*
X103697113Y-61340647D01*
X103784056Y-61359128D01*
X103784061Y-61359128D01*
X103790513Y-61360500D01*
X103981487Y-61360500D01*
X103987939Y-61359128D01*
X103987944Y-61359128D01*
X104074887Y-61340647D01*
X104168288Y-61320794D01*
X104174319Y-61318109D01*
X104336722Y-61245803D01*
X104336724Y-61245802D01*
X104342752Y-61243118D01*
X104497253Y-61130866D01*
X104625040Y-60988944D01*
X104720527Y-60823556D01*
X104779542Y-60641928D01*
X104799504Y-60452000D01*
X104779542Y-60262072D01*
X104720527Y-60080444D01*
X104625040Y-59915056D01*
X104497253Y-59773134D01*
X104342752Y-59660882D01*
X104336724Y-59658198D01*
X104336722Y-59658197D01*
X104174319Y-59585891D01*
X104174318Y-59585891D01*
X104168288Y-59583206D01*
X104074888Y-59563353D01*
X103987944Y-59544872D01*
X103987939Y-59544872D01*
X103981487Y-59543500D01*
X103925595Y-59543500D01*
X103857474Y-59523498D01*
X103836499Y-59506595D01*
X103055121Y-58725216D01*
X103021096Y-58662904D01*
X103018907Y-58649291D01*
X103002232Y-58490635D01*
X103002232Y-58490633D01*
X103001542Y-58484072D01*
X102942527Y-58302444D01*
X102847040Y-58137056D01*
X102719253Y-57995134D01*
X102564752Y-57882882D01*
X102558724Y-57880198D01*
X102558722Y-57880197D01*
X102396319Y-57807891D01*
X102396318Y-57807891D01*
X102390288Y-57805206D01*
X102296887Y-57785353D01*
X102209944Y-57766872D01*
X102209939Y-57766872D01*
X102203487Y-57765500D01*
X102012513Y-57765500D01*
X102006061Y-57766872D01*
X102006056Y-57766872D01*
X101919113Y-57785353D01*
X101825712Y-57805206D01*
X101819682Y-57807891D01*
X101819681Y-57807891D01*
X101657278Y-57880197D01*
X101657276Y-57880198D01*
X101651248Y-57882882D01*
X101496747Y-57995134D01*
X101368960Y-58137056D01*
X101273473Y-58302444D01*
X101214458Y-58484072D01*
X101194496Y-58674000D01*
X98508500Y-58674000D01*
X98508500Y-55351943D01*
X106041780Y-55351943D01*
X106045872Y-55395226D01*
X106045941Y-55395961D01*
X106046500Y-55407819D01*
X106046500Y-68247233D01*
X106045973Y-68258416D01*
X106044298Y-68265909D01*
X106044547Y-68273835D01*
X106044547Y-68273836D01*
X106046438Y-68333986D01*
X106046500Y-68337945D01*
X106046500Y-68365856D01*
X106046997Y-68369790D01*
X106046997Y-68369791D01*
X106047005Y-68369856D01*
X106047938Y-68381693D01*
X106049327Y-68425889D01*
X106054978Y-68445339D01*
X106058987Y-68464700D01*
X106061526Y-68484797D01*
X106064445Y-68492168D01*
X106064445Y-68492170D01*
X106077804Y-68525912D01*
X106081649Y-68537142D01*
X106086881Y-68555150D01*
X106093982Y-68579593D01*
X106098015Y-68586412D01*
X106098017Y-68586417D01*
X106104293Y-68597028D01*
X106112988Y-68614776D01*
X106120448Y-68633617D01*
X106125110Y-68640033D01*
X106125110Y-68640034D01*
X106146436Y-68669387D01*
X106152952Y-68679307D01*
X106163745Y-68697556D01*
X106175458Y-68717362D01*
X106189779Y-68731683D01*
X106202619Y-68746716D01*
X106214528Y-68763107D01*
X106230362Y-68776206D01*
X106248605Y-68791298D01*
X106257384Y-68799288D01*
X106305042Y-68846946D01*
X106335780Y-68897104D01*
X106353473Y-68951556D01*
X106448960Y-69116944D01*
X106453378Y-69121851D01*
X106453379Y-69121852D01*
X106548461Y-69227451D01*
X106576747Y-69258866D01*
X106675843Y-69330864D01*
X106700792Y-69348990D01*
X106731248Y-69371118D01*
X106737276Y-69373802D01*
X106737278Y-69373803D01*
X106899681Y-69446109D01*
X106905712Y-69448794D01*
X106999112Y-69468647D01*
X107086056Y-69487128D01*
X107086061Y-69487128D01*
X107092513Y-69488500D01*
X107283487Y-69488500D01*
X107289939Y-69487128D01*
X107289944Y-69487128D01*
X107376888Y-69468647D01*
X107470288Y-69448794D01*
X107476319Y-69446109D01*
X107638722Y-69373803D01*
X107638724Y-69373802D01*
X107644752Y-69371118D01*
X107675209Y-69348990D01*
X107700157Y-69330864D01*
X107799253Y-69258866D01*
X107827539Y-69227451D01*
X107922621Y-69121852D01*
X107922622Y-69121851D01*
X107927040Y-69116944D01*
X108022527Y-68951556D01*
X108081542Y-68769928D01*
X108084825Y-68738697D01*
X108100814Y-68586565D01*
X108101504Y-68580000D01*
X108097300Y-68540000D01*
X108082232Y-68396635D01*
X108082232Y-68396633D01*
X108081542Y-68390072D01*
X108060724Y-68326000D01*
X121260496Y-68326000D01*
X121261186Y-68332565D01*
X121279488Y-68506695D01*
X121280458Y-68515928D01*
X121339473Y-68697556D01*
X121342776Y-68703278D01*
X121342777Y-68703279D01*
X121355056Y-68724547D01*
X121434960Y-68862944D01*
X121439378Y-68867851D01*
X121439379Y-68867852D01*
X121521365Y-68958907D01*
X121562747Y-69004866D01*
X121717248Y-69117118D01*
X121723276Y-69119802D01*
X121723278Y-69119803D01*
X121885681Y-69192109D01*
X121891712Y-69194794D01*
X121985113Y-69214647D01*
X122072056Y-69233128D01*
X122072061Y-69233128D01*
X122078513Y-69234500D01*
X122269487Y-69234500D01*
X122275939Y-69233128D01*
X122275944Y-69233128D01*
X122362887Y-69214647D01*
X122456288Y-69194794D01*
X122462319Y-69192109D01*
X122624722Y-69119803D01*
X122624724Y-69119802D01*
X122630752Y-69117118D01*
X122674231Y-69085529D01*
X122763671Y-69020546D01*
X122785253Y-69004866D01*
X122789668Y-68999963D01*
X122794580Y-68995540D01*
X122795705Y-68996789D01*
X122849014Y-68963949D01*
X122882200Y-68959500D01*
X122996500Y-68959500D01*
X123064621Y-68979502D01*
X123111114Y-69033158D01*
X123122500Y-69085500D01*
X123122500Y-82930101D01*
X123102498Y-82998222D01*
X123085595Y-83019196D01*
X122072747Y-84032043D01*
X122064461Y-84039583D01*
X122057982Y-84043695D01*
X122052557Y-84049472D01*
X122011357Y-84093346D01*
X122008602Y-84096188D01*
X121988865Y-84115925D01*
X121986385Y-84119122D01*
X121978682Y-84128142D01*
X121948414Y-84160374D01*
X121944595Y-84167320D01*
X121944593Y-84167323D01*
X121938652Y-84178129D01*
X121927801Y-84194648D01*
X121915386Y-84210654D01*
X121912241Y-84217923D01*
X121912238Y-84217927D01*
X121897826Y-84251232D01*
X121892609Y-84261882D01*
X121871305Y-84300635D01*
X121869334Y-84308310D01*
X121869334Y-84308311D01*
X121866267Y-84320257D01*
X121859863Y-84338961D01*
X121851819Y-84357550D01*
X121850580Y-84365373D01*
X121850577Y-84365383D01*
X121844901Y-84401219D01*
X121842495Y-84412839D01*
X121836589Y-84435842D01*
X121831500Y-84455665D01*
X121831500Y-84475919D01*
X121829949Y-84495629D01*
X121826780Y-84515638D01*
X121827526Y-84523530D01*
X121830941Y-84559656D01*
X121831500Y-84571514D01*
X121831500Y-85556233D01*
X121830973Y-85567416D01*
X121829298Y-85574909D01*
X121829547Y-85582835D01*
X121829547Y-85582836D01*
X121831438Y-85642986D01*
X121831500Y-85646945D01*
X121831500Y-85674856D01*
X121831997Y-85678790D01*
X121831997Y-85678791D01*
X121832005Y-85678856D01*
X121832938Y-85690693D01*
X121834327Y-85734889D01*
X121839978Y-85754339D01*
X121843987Y-85773700D01*
X121846526Y-85793797D01*
X121849445Y-85801168D01*
X121849445Y-85801170D01*
X121862804Y-85834912D01*
X121866649Y-85846142D01*
X121878982Y-85888593D01*
X121883015Y-85895412D01*
X121883017Y-85895417D01*
X121889293Y-85906028D01*
X121897988Y-85923776D01*
X121905448Y-85942617D01*
X121910110Y-85949033D01*
X121910110Y-85949034D01*
X121931436Y-85978387D01*
X121937952Y-85988307D01*
X121960458Y-86026362D01*
X121974779Y-86040683D01*
X121987619Y-86055716D01*
X121999528Y-86072107D01*
X122005636Y-86077160D01*
X122033598Y-86100292D01*
X122042378Y-86108282D01*
X122242878Y-86308782D01*
X122276904Y-86371094D01*
X122279093Y-86384707D01*
X122294537Y-86531646D01*
X122296458Y-86549928D01*
X122355473Y-86731556D01*
X122358776Y-86737278D01*
X122358777Y-86737279D01*
X122392686Y-86796010D01*
X122450960Y-86896944D01*
X122455378Y-86901851D01*
X122455379Y-86901852D01*
X122539787Y-86995597D01*
X122578747Y-87038866D01*
X122733248Y-87151118D01*
X122739276Y-87153802D01*
X122739278Y-87153803D01*
X122811756Y-87186072D01*
X122907712Y-87228794D01*
X123001113Y-87248647D01*
X123088056Y-87267128D01*
X123088061Y-87267128D01*
X123094513Y-87268500D01*
X123285487Y-87268500D01*
X123291939Y-87267128D01*
X123291944Y-87267128D01*
X123378887Y-87248647D01*
X123472288Y-87228794D01*
X123568244Y-87186072D01*
X123640722Y-87153803D01*
X123640724Y-87153802D01*
X123646752Y-87151118D01*
X123801253Y-87038866D01*
X123840213Y-86995597D01*
X123924621Y-86901852D01*
X123924622Y-86901851D01*
X123929040Y-86896944D01*
X123987314Y-86796010D01*
X124021223Y-86737279D01*
X124021224Y-86737278D01*
X124024527Y-86731556D01*
X124083542Y-86549928D01*
X124085464Y-86531646D01*
X124102814Y-86366565D01*
X124103504Y-86360000D01*
X124099947Y-86326153D01*
X124084232Y-86176635D01*
X124084232Y-86176633D01*
X124083542Y-86170072D01*
X124024527Y-85988444D01*
X124013156Y-85968748D01*
X123945751Y-85852000D01*
X123929040Y-85823056D01*
X123856505Y-85742497D01*
X123802312Y-85682310D01*
X123771594Y-85618303D01*
X123780359Y-85547849D01*
X123802312Y-85513690D01*
X123924621Y-85377852D01*
X123924622Y-85377851D01*
X123929040Y-85372944D01*
X124024527Y-85207556D01*
X124083542Y-85025928D01*
X124103504Y-84836000D01*
X124083955Y-84650000D01*
X124096727Y-84580162D01*
X124120170Y-84547734D01*
X124338044Y-84329861D01*
X124598258Y-84069647D01*
X124606537Y-84062113D01*
X124613018Y-84058000D01*
X124659644Y-84008348D01*
X124662398Y-84005507D01*
X124682135Y-83985770D01*
X124684615Y-83982573D01*
X124692320Y-83973551D01*
X124717159Y-83947100D01*
X124722586Y-83941321D01*
X124726405Y-83934375D01*
X124726407Y-83934372D01*
X124732348Y-83923566D01*
X124743199Y-83907047D01*
X124750758Y-83897301D01*
X124755614Y-83891041D01*
X124758759Y-83883772D01*
X124758762Y-83883768D01*
X124773174Y-83850463D01*
X124778391Y-83839813D01*
X124799695Y-83801060D01*
X124804733Y-83781437D01*
X124811137Y-83762734D01*
X124816033Y-83751420D01*
X124816033Y-83751419D01*
X124819181Y-83744145D01*
X124820420Y-83736322D01*
X124820423Y-83736312D01*
X124826099Y-83700476D01*
X124828505Y-83688856D01*
X124837528Y-83653711D01*
X124837528Y-83653710D01*
X124839500Y-83646030D01*
X124839500Y-83625776D01*
X124841051Y-83606065D01*
X124842980Y-83593886D01*
X124844220Y-83586057D01*
X124840059Y-83542038D01*
X124839500Y-83530181D01*
X124839500Y-67500000D01*
X125986540Y-67500000D01*
X126006359Y-67815020D01*
X126065505Y-68125072D01*
X126118998Y-68289706D01*
X126146959Y-68375760D01*
X126163044Y-68425266D01*
X126164731Y-68428852D01*
X126164733Y-68428856D01*
X126295750Y-68707283D01*
X126295754Y-68707290D01*
X126297438Y-68710869D01*
X126466568Y-68977375D01*
X126667767Y-69220582D01*
X126897860Y-69436654D01*
X126901062Y-69438981D01*
X126901064Y-69438982D01*
X126953631Y-69477174D01*
X127153221Y-69622184D01*
X127156690Y-69624091D01*
X127156693Y-69624093D01*
X127426352Y-69772340D01*
X127429821Y-69774247D01*
X127433490Y-69775700D01*
X127433495Y-69775702D01*
X127518036Y-69809174D01*
X127723298Y-69890443D01*
X128029025Y-69968940D01*
X128342179Y-70008500D01*
X128657821Y-70008500D01*
X128970975Y-69968940D01*
X129276702Y-69890443D01*
X129481964Y-69809174D01*
X129566505Y-69775702D01*
X129566510Y-69775700D01*
X129570179Y-69774247D01*
X129573648Y-69772340D01*
X129843307Y-69624093D01*
X129843310Y-69624091D01*
X129846779Y-69622184D01*
X130046369Y-69477174D01*
X130098936Y-69438982D01*
X130098938Y-69438981D01*
X130102140Y-69436654D01*
X130332233Y-69220582D01*
X130533432Y-68977375D01*
X130702562Y-68710869D01*
X130704246Y-68707290D01*
X130704250Y-68707283D01*
X130835267Y-68428856D01*
X130835269Y-68428852D01*
X130836956Y-68425266D01*
X130853042Y-68375760D01*
X130881002Y-68289706D01*
X130934495Y-68125072D01*
X130942732Y-68081892D01*
X130975144Y-68018726D01*
X131036561Y-67983111D01*
X131107484Y-67986354D01*
X131165394Y-68027425D01*
X131191906Y-68093286D01*
X131192500Y-68105502D01*
X131192500Y-81219406D01*
X131172498Y-81287527D01*
X131155595Y-81308501D01*
X128201270Y-84262825D01*
X128138958Y-84296851D01*
X128085979Y-84296977D01*
X128026570Y-84284350D01*
X128026571Y-84284350D01*
X128020111Y-84282977D01*
X127829137Y-84282977D01*
X127822685Y-84284349D01*
X127822680Y-84284349D01*
X127746063Y-84300635D01*
X127642336Y-84322683D01*
X127636306Y-84325368D01*
X127636305Y-84325368D01*
X127473902Y-84397674D01*
X127473900Y-84397675D01*
X127467872Y-84400359D01*
X127313371Y-84512611D01*
X127308950Y-84517521D01*
X127308949Y-84517522D01*
X127260335Y-84571514D01*
X127185584Y-84654533D01*
X127090097Y-84819921D01*
X127031082Y-85001549D01*
X127030392Y-85008110D01*
X127030392Y-85008112D01*
X127020902Y-85098404D01*
X127011120Y-85191477D01*
X127031082Y-85381405D01*
X127090097Y-85563033D01*
X127093400Y-85568755D01*
X127093401Y-85568756D01*
X127101530Y-85582836D01*
X127185584Y-85728421D01*
X127219502Y-85766091D01*
X127250217Y-85830094D01*
X127241454Y-85900548D01*
X127219501Y-85934708D01*
X127194002Y-85963027D01*
X127190699Y-85968748D01*
X127106846Y-86113986D01*
X127098515Y-86128415D01*
X127039500Y-86310043D01*
X127038810Y-86316604D01*
X127038810Y-86316606D01*
X127023812Y-86459307D01*
X127019538Y-86499971D01*
X127039500Y-86689899D01*
X127098515Y-86871527D01*
X127101818Y-86877248D01*
X127101819Y-86877250D01*
X127116023Y-86901852D01*
X127194002Y-87036915D01*
X127198420Y-87041822D01*
X127198421Y-87041823D01*
X127293336Y-87147237D01*
X127321789Y-87178837D01*
X127476290Y-87291089D01*
X127482318Y-87293773D01*
X127482320Y-87293774D01*
X127597956Y-87345258D01*
X127650754Y-87368765D01*
X127715678Y-87382565D01*
X127831098Y-87407099D01*
X127831103Y-87407099D01*
X127837555Y-87408471D01*
X128028529Y-87408471D01*
X128034981Y-87407099D01*
X128034986Y-87407099D01*
X128150406Y-87382565D01*
X128215330Y-87368765D01*
X128268128Y-87345258D01*
X128383764Y-87293774D01*
X128383766Y-87293773D01*
X128389794Y-87291089D01*
X128544295Y-87178837D01*
X128572748Y-87147237D01*
X128667663Y-87041823D01*
X128667664Y-87041822D01*
X128672082Y-87036915D01*
X128767569Y-86871527D01*
X128811190Y-86737279D01*
X128812703Y-86732621D01*
X128843441Y-86682463D01*
X128965297Y-86560607D01*
X129027609Y-86526581D01*
X129098424Y-86531646D01*
X129155260Y-86574193D01*
X129174225Y-86610765D01*
X129196095Y-86678072D01*
X129213473Y-86731556D01*
X129216776Y-86737278D01*
X129216777Y-86737279D01*
X129250686Y-86796010D01*
X129308960Y-86896944D01*
X129313378Y-86901851D01*
X129313379Y-86901852D01*
X129397787Y-86995597D01*
X129436747Y-87038866D01*
X129591248Y-87151118D01*
X129597276Y-87153802D01*
X129597278Y-87153803D01*
X129669756Y-87186072D01*
X129765712Y-87228794D01*
X129859113Y-87248647D01*
X129946056Y-87267128D01*
X129946061Y-87267128D01*
X129952513Y-87268500D01*
X130143487Y-87268500D01*
X130149939Y-87267128D01*
X130149944Y-87267128D01*
X130236888Y-87248647D01*
X130330288Y-87228794D01*
X130426244Y-87186072D01*
X130498722Y-87153803D01*
X130498724Y-87153802D01*
X130504752Y-87151118D01*
X130659253Y-87038866D01*
X130698213Y-86995597D01*
X130782621Y-86901852D01*
X130782622Y-86901851D01*
X130787040Y-86896944D01*
X130845314Y-86796010D01*
X130879223Y-86737279D01*
X130879224Y-86737278D01*
X130882527Y-86731556D01*
X130941542Y-86549928D01*
X130942933Y-86536694D01*
X130954342Y-86428145D01*
X130981355Y-86362488D01*
X130994189Y-86348731D01*
X132676157Y-84796144D01*
X133721069Y-83831610D01*
X133729303Y-83824637D01*
X133734532Y-83820581D01*
X133741362Y-83816542D01*
X133746972Y-83810932D01*
X133746976Y-83810929D01*
X133787216Y-83770690D01*
X133790844Y-83767203D01*
X133806072Y-83753146D01*
X133806075Y-83753143D01*
X133808977Y-83750464D01*
X133813675Y-83744883D01*
X133820974Y-83736930D01*
X134316501Y-83241404D01*
X134378813Y-83207379D01*
X134405596Y-83204500D01*
X134461487Y-83204500D01*
X134467939Y-83203128D01*
X134467944Y-83203128D01*
X134554887Y-83184647D01*
X134648288Y-83164794D01*
X134654319Y-83162109D01*
X134816722Y-83089803D01*
X134816724Y-83089802D01*
X134822752Y-83087118D01*
X134977253Y-82974866D01*
X135056247Y-82887134D01*
X135100621Y-82837852D01*
X135100622Y-82837851D01*
X135105040Y-82832944D01*
X135184201Y-82695834D01*
X135197223Y-82673279D01*
X135197224Y-82673278D01*
X135200527Y-82667556D01*
X135259542Y-82485928D01*
X135261138Y-82470749D01*
X135278814Y-82302565D01*
X135279504Y-82296000D01*
X135264503Y-82153271D01*
X135260232Y-82112635D01*
X135260232Y-82112633D01*
X135259542Y-82106072D01*
X135238724Y-82042000D01*
X142596496Y-82042000D01*
X142616458Y-82231928D01*
X142675473Y-82413556D01*
X142770960Y-82578944D01*
X142775375Y-82583847D01*
X142775379Y-82583852D01*
X142886166Y-82706893D01*
X142898747Y-82720866D01*
X143053248Y-82833118D01*
X143059276Y-82835802D01*
X143059278Y-82835803D01*
X143221681Y-82908109D01*
X143227712Y-82910794D01*
X143318544Y-82930101D01*
X143408056Y-82949128D01*
X143408061Y-82949128D01*
X143414513Y-82950500D01*
X143511744Y-82950500D01*
X143579865Y-82970502D01*
X143592905Y-82980121D01*
X147644452Y-86391950D01*
X147683673Y-86451127D01*
X147688599Y-86475155D01*
X147696458Y-86549928D01*
X147755473Y-86731556D01*
X147758776Y-86737278D01*
X147758777Y-86737279D01*
X147792686Y-86796010D01*
X147850960Y-86896944D01*
X147855378Y-86901851D01*
X147855379Y-86901852D01*
X147939787Y-86995597D01*
X147978747Y-87038866D01*
X148133248Y-87151118D01*
X148139276Y-87153802D01*
X148139278Y-87153803D01*
X148211756Y-87186072D01*
X148307712Y-87228794D01*
X148401113Y-87248647D01*
X148488056Y-87267128D01*
X148488061Y-87267128D01*
X148494513Y-87268500D01*
X148685487Y-87268500D01*
X148691939Y-87267128D01*
X148691944Y-87267128D01*
X148778888Y-87248647D01*
X148872288Y-87228794D01*
X148968244Y-87186072D01*
X149040722Y-87153803D01*
X149040724Y-87153802D01*
X149046752Y-87151118D01*
X149201253Y-87038866D01*
X149240213Y-86995597D01*
X149324621Y-86901852D01*
X149324622Y-86901851D01*
X149329040Y-86896944D01*
X149387314Y-86796010D01*
X149421223Y-86737279D01*
X149421224Y-86737278D01*
X149424527Y-86731556D01*
X149483542Y-86549928D01*
X149485464Y-86531646D01*
X149502814Y-86366565D01*
X149503504Y-86360000D01*
X149493159Y-86261574D01*
X149500311Y-86222465D01*
X149490375Y-86208022D01*
X149484788Y-86181918D01*
X149484233Y-86176643D01*
X149484232Y-86176640D01*
X149483542Y-86170072D01*
X149424527Y-85988444D01*
X149413156Y-85968748D01*
X149345751Y-85852000D01*
X149329040Y-85823056D01*
X149256505Y-85742497D01*
X149205675Y-85686045D01*
X149205674Y-85686044D01*
X149201253Y-85681134D01*
X149065958Y-85582836D01*
X149052094Y-85572763D01*
X149052093Y-85572762D01*
X149046752Y-85568882D01*
X149040724Y-85566198D01*
X149040722Y-85566197D01*
X148878319Y-85493891D01*
X148878318Y-85493891D01*
X148872288Y-85491206D01*
X148759721Y-85467279D01*
X148691944Y-85452872D01*
X148691939Y-85452872D01*
X148685487Y-85451500D01*
X148540631Y-85451500D01*
X148472510Y-85431498D01*
X148459470Y-85421879D01*
X148204962Y-85207556D01*
X147383309Y-84515638D01*
X144460174Y-82054050D01*
X144420952Y-81994871D01*
X144416025Y-81970841D01*
X144404232Y-81858637D01*
X144404232Y-81858635D01*
X144403542Y-81852072D01*
X144380591Y-81781435D01*
X144346569Y-81676729D01*
X144344527Y-81670444D01*
X144249040Y-81505056D01*
X144169254Y-81416444D01*
X144125675Y-81368045D01*
X144125674Y-81368044D01*
X144121253Y-81363134D01*
X143966752Y-81250882D01*
X143960724Y-81248198D01*
X143960722Y-81248197D01*
X143798319Y-81175891D01*
X143798318Y-81175891D01*
X143792288Y-81173206D01*
X143698888Y-81153353D01*
X143611944Y-81134872D01*
X143611939Y-81134872D01*
X143605487Y-81133500D01*
X143414513Y-81133500D01*
X143408061Y-81134872D01*
X143408056Y-81134872D01*
X143321112Y-81153353D01*
X143227712Y-81173206D01*
X143221682Y-81175891D01*
X143221681Y-81175891D01*
X143059278Y-81248197D01*
X143059276Y-81248198D01*
X143053248Y-81250882D01*
X142898747Y-81363134D01*
X142894326Y-81368044D01*
X142894325Y-81368045D01*
X142850747Y-81416444D01*
X142770960Y-81505056D01*
X142675473Y-81670444D01*
X142616458Y-81852072D01*
X142596496Y-82042000D01*
X135238724Y-82042000D01*
X135200527Y-81924444D01*
X135105040Y-81759056D01*
X135025254Y-81670444D01*
X134981675Y-81622045D01*
X134981674Y-81622044D01*
X134977253Y-81617134D01*
X134822752Y-81504882D01*
X134816724Y-81502198D01*
X134816722Y-81502197D01*
X134654319Y-81429891D01*
X134654318Y-81429891D01*
X134648288Y-81427206D01*
X134554888Y-81407353D01*
X134467944Y-81388872D01*
X134467939Y-81388872D01*
X134461487Y-81387500D01*
X134270513Y-81387500D01*
X134264061Y-81388872D01*
X134264056Y-81388872D01*
X134177112Y-81407353D01*
X134083712Y-81427206D01*
X134077682Y-81429891D01*
X134077681Y-81429891D01*
X133915278Y-81502197D01*
X133915276Y-81502198D01*
X133909248Y-81504882D01*
X133754747Y-81617134D01*
X133750326Y-81622044D01*
X133750325Y-81622045D01*
X133706747Y-81670444D01*
X133626960Y-81759056D01*
X133531473Y-81924444D01*
X133472458Y-82106072D01*
X133471768Y-82112633D01*
X133471768Y-82112635D01*
X133455093Y-82271292D01*
X133428080Y-82336949D01*
X133418878Y-82347218D01*
X133093227Y-82672868D01*
X133030915Y-82706893D01*
X132960099Y-82701828D01*
X132903264Y-82659281D01*
X132878453Y-82592761D01*
X132886120Y-82547702D01*
X132883821Y-82547034D01*
X132886034Y-82539417D01*
X132889181Y-82532145D01*
X132896097Y-82488481D01*
X132898504Y-82476860D01*
X132907528Y-82441711D01*
X132907528Y-82441710D01*
X132909500Y-82434030D01*
X132909500Y-82413769D01*
X132911051Y-82394058D01*
X132912979Y-82381885D01*
X132914219Y-82374057D01*
X132910059Y-82330046D01*
X132909500Y-82318189D01*
X132909500Y-68548585D01*
X133706496Y-68548585D01*
X133707186Y-68555150D01*
X133723553Y-68710869D01*
X133726458Y-68738513D01*
X133785473Y-68920141D01*
X133788776Y-68925863D01*
X133788777Y-68925864D01*
X133806915Y-68957279D01*
X133880960Y-69085529D01*
X133885378Y-69090436D01*
X133885379Y-69090437D01*
X133980578Y-69196166D01*
X134008747Y-69227451D01*
X134163248Y-69339703D01*
X134169276Y-69342387D01*
X134169278Y-69342388D01*
X134239838Y-69373803D01*
X134337712Y-69417379D01*
X134415639Y-69433943D01*
X134518056Y-69455713D01*
X134518061Y-69455713D01*
X134524513Y-69457085D01*
X134715487Y-69457085D01*
X134721939Y-69455713D01*
X134721944Y-69455713D01*
X134824361Y-69433943D01*
X134902288Y-69417379D01*
X135000162Y-69373803D01*
X135070722Y-69342388D01*
X135070724Y-69342387D01*
X135076752Y-69339703D01*
X135231253Y-69227451D01*
X135259422Y-69196166D01*
X135354621Y-69090437D01*
X135354622Y-69090436D01*
X135359040Y-69085529D01*
X135433085Y-68957279D01*
X135451223Y-68925864D01*
X135451224Y-68925863D01*
X135454527Y-68920141D01*
X135513542Y-68738513D01*
X135516448Y-68710869D01*
X135530202Y-68580000D01*
X148946496Y-68580000D01*
X148947186Y-68586565D01*
X148963176Y-68738697D01*
X148966458Y-68769928D01*
X149025473Y-68951556D01*
X149120960Y-69116944D01*
X149125378Y-69121851D01*
X149125379Y-69121852D01*
X149220461Y-69227451D01*
X149248747Y-69258866D01*
X149347843Y-69330864D01*
X149372792Y-69348990D01*
X149403248Y-69371118D01*
X149409276Y-69373802D01*
X149409278Y-69373803D01*
X149501122Y-69414694D01*
X149577712Y-69448794D01*
X149634024Y-69460764D01*
X149634698Y-69460907D01*
X149697171Y-69494635D01*
X149731492Y-69556785D01*
X149734500Y-69584153D01*
X149734500Y-86027233D01*
X149733973Y-86038416D01*
X149732298Y-86045909D01*
X149732547Y-86053835D01*
X149732547Y-86053836D01*
X149734438Y-86113986D01*
X149734500Y-86117945D01*
X149734500Y-86145856D01*
X149734997Y-86149790D01*
X149734997Y-86149791D01*
X149735005Y-86149856D01*
X149735938Y-86161701D01*
X149736035Y-86164789D01*
X149728779Y-86192715D01*
X149734992Y-86200463D01*
X149739463Y-86213242D01*
X149742980Y-86225346D01*
X149746987Y-86244700D01*
X149749526Y-86264797D01*
X149752445Y-86272168D01*
X149752445Y-86272170D01*
X149765804Y-86305912D01*
X149769649Y-86317142D01*
X149777473Y-86344074D01*
X149781982Y-86359593D01*
X149786015Y-86366412D01*
X149786017Y-86366417D01*
X149792293Y-86377028D01*
X149800988Y-86394776D01*
X149808448Y-86413617D01*
X149813110Y-86420033D01*
X149813110Y-86420034D01*
X149834436Y-86449387D01*
X149840952Y-86459307D01*
X149863458Y-86497362D01*
X149877779Y-86511683D01*
X149890619Y-86526716D01*
X149902528Y-86543107D01*
X149918362Y-86556206D01*
X149936605Y-86571298D01*
X149945384Y-86579288D01*
X150247042Y-86880946D01*
X150277780Y-86931104D01*
X150295473Y-86985556D01*
X150390960Y-87150944D01*
X150395378Y-87155851D01*
X150395379Y-87155852D01*
X150514325Y-87287955D01*
X150518747Y-87292866D01*
X150590858Y-87345258D01*
X150642207Y-87382565D01*
X150673248Y-87405118D01*
X150679276Y-87407802D01*
X150679278Y-87407803D01*
X150751756Y-87440072D01*
X150847712Y-87482794D01*
X150941112Y-87502647D01*
X151028056Y-87521128D01*
X151028061Y-87521128D01*
X151034513Y-87522500D01*
X151225487Y-87522500D01*
X151231939Y-87521128D01*
X151231944Y-87521128D01*
X151318888Y-87502647D01*
X151412288Y-87482794D01*
X151508244Y-87440072D01*
X151580722Y-87407803D01*
X151580724Y-87407802D01*
X151586752Y-87405118D01*
X151617794Y-87382565D01*
X151669142Y-87345258D01*
X151741253Y-87292866D01*
X151745675Y-87287955D01*
X151864621Y-87155852D01*
X151864622Y-87155851D01*
X151869040Y-87150944D01*
X151938176Y-87031197D01*
X151961223Y-86991279D01*
X151961224Y-86991277D01*
X151964527Y-86985556D01*
X152023542Y-86803928D01*
X152032170Y-86721842D01*
X152042814Y-86620565D01*
X152043504Y-86614000D01*
X152030547Y-86490721D01*
X152024232Y-86430635D01*
X152024232Y-86430633D01*
X152023542Y-86424072D01*
X151964527Y-86242444D01*
X151944654Y-86208022D01*
X151891500Y-86115958D01*
X151869040Y-86077056D01*
X151789254Y-85988444D01*
X151742312Y-85936310D01*
X151711594Y-85872303D01*
X151720359Y-85801849D01*
X151742312Y-85767690D01*
X151864621Y-85631852D01*
X151864622Y-85631851D01*
X151869040Y-85626944D01*
X151964527Y-85461556D01*
X152023542Y-85279928D01*
X152032149Y-85198042D01*
X152042814Y-85096565D01*
X152043504Y-85090000D01*
X152023542Y-84900072D01*
X151964527Y-84718444D01*
X151940717Y-84677203D01*
X151885986Y-84582407D01*
X151869040Y-84553056D01*
X151795863Y-84471785D01*
X151765147Y-84407779D01*
X151763500Y-84387476D01*
X151763500Y-68404767D01*
X151764027Y-68393584D01*
X151765702Y-68386091D01*
X151764942Y-68361892D01*
X151763562Y-68318001D01*
X151763500Y-68314043D01*
X151763500Y-68286144D01*
X151762996Y-68282153D01*
X151762063Y-68270311D01*
X151761711Y-68259093D01*
X151760674Y-68226111D01*
X151758462Y-68218497D01*
X151758461Y-68218492D01*
X151755023Y-68206659D01*
X151751012Y-68187295D01*
X151749467Y-68175064D01*
X151748474Y-68167203D01*
X151745557Y-68159836D01*
X151745556Y-68159831D01*
X151732198Y-68126092D01*
X151728354Y-68114865D01*
X151725639Y-68105522D01*
X151716018Y-68072407D01*
X151705707Y-68054972D01*
X151697012Y-68037224D01*
X151689552Y-68018383D01*
X151663564Y-67982613D01*
X151657048Y-67972693D01*
X151638580Y-67941465D01*
X151638578Y-67941462D01*
X151634542Y-67934638D01*
X151620221Y-67920317D01*
X151607380Y-67905283D01*
X151595472Y-67888893D01*
X151561395Y-67860702D01*
X151552616Y-67852712D01*
X151061122Y-67361218D01*
X151027096Y-67298906D01*
X151024907Y-67285293D01*
X151008232Y-67126635D01*
X151008232Y-67126633D01*
X151007542Y-67120072D01*
X150948527Y-66938444D01*
X150924717Y-66897203D01*
X150890269Y-66837539D01*
X150853040Y-66773056D01*
X150830825Y-66748383D01*
X150729675Y-66636045D01*
X150729674Y-66636044D01*
X150725253Y-66631134D01*
X150570752Y-66518882D01*
X150564724Y-66516198D01*
X150564722Y-66516197D01*
X150402319Y-66443891D01*
X150402318Y-66443891D01*
X150396288Y-66441206D01*
X150290524Y-66418725D01*
X150215944Y-66402872D01*
X150215939Y-66402872D01*
X150209487Y-66401500D01*
X150018513Y-66401500D01*
X150012061Y-66402872D01*
X150012056Y-66402872D01*
X149937476Y-66418725D01*
X149831712Y-66441206D01*
X149825682Y-66443891D01*
X149825681Y-66443891D01*
X149663278Y-66516197D01*
X149663276Y-66516198D01*
X149657248Y-66518882D01*
X149502747Y-66631134D01*
X149498326Y-66636044D01*
X149498325Y-66636045D01*
X149397176Y-66748383D01*
X149374960Y-66773056D01*
X149337731Y-66837539D01*
X149303284Y-66897203D01*
X149279473Y-66938444D01*
X149220458Y-67120072D01*
X149219768Y-67126633D01*
X149219768Y-67126635D01*
X149209738Y-67222069D01*
X149200496Y-67310000D01*
X149201186Y-67316565D01*
X149216636Y-67463559D01*
X149220458Y-67499928D01*
X149279473Y-67681556D01*
X149282776Y-67687277D01*
X149282777Y-67687279D01*
X149302978Y-67722268D01*
X149319716Y-67791264D01*
X149296495Y-67858355D01*
X149267920Y-67887204D01*
X149256034Y-67895840D01*
X149248747Y-67901134D01*
X149244326Y-67906044D01*
X149244325Y-67906045D01*
X149143176Y-68018383D01*
X149120960Y-68043056D01*
X149104014Y-68072407D01*
X149046235Y-68172484D01*
X149025473Y-68208444D01*
X148966458Y-68390072D01*
X148965768Y-68396633D01*
X148965768Y-68396635D01*
X148950700Y-68540000D01*
X148946496Y-68580000D01*
X135530202Y-68580000D01*
X135532814Y-68555150D01*
X135533504Y-68548585D01*
X135531121Y-68525912D01*
X135514233Y-68365227D01*
X135514232Y-68365220D01*
X135513542Y-68358657D01*
X135511501Y-68352375D01*
X135510707Y-68348641D01*
X135516109Y-68277850D01*
X135558926Y-68221218D01*
X135607757Y-68199197D01*
X135695658Y-68180513D01*
X135701689Y-68177828D01*
X135864092Y-68105522D01*
X135864094Y-68105521D01*
X135870122Y-68102837D01*
X136024623Y-67990585D01*
X136031801Y-67982613D01*
X136147991Y-67853571D01*
X136147992Y-67853570D01*
X136152410Y-67848663D01*
X136247897Y-67683275D01*
X136306912Y-67501647D01*
X136307783Y-67493365D01*
X136326184Y-67318284D01*
X136326874Y-67311719D01*
X136306912Y-67121791D01*
X136247897Y-66940163D01*
X136243601Y-66932721D01*
X136155711Y-66780493D01*
X136152410Y-66774775D01*
X136135284Y-66755754D01*
X136077193Y-66691238D01*
X136046475Y-66627231D01*
X136044934Y-66601789D01*
X136080604Y-65727885D01*
X154542000Y-65727885D01*
X154546475Y-65743124D01*
X154547865Y-65744329D01*
X154555548Y-65746000D01*
X155627885Y-65746000D01*
X155643124Y-65741525D01*
X155644329Y-65740135D01*
X155646000Y-65732452D01*
X155646000Y-64660116D01*
X155641525Y-64644877D01*
X155640135Y-64643672D01*
X155632452Y-64642001D01*
X155005331Y-64642001D01*
X154998510Y-64642371D01*
X154947648Y-64647895D01*
X154932396Y-64651521D01*
X154811946Y-64696676D01*
X154796351Y-64705214D01*
X154694276Y-64781715D01*
X154681715Y-64794276D01*
X154605214Y-64896351D01*
X154596676Y-64911946D01*
X154551522Y-65032394D01*
X154547895Y-65047649D01*
X154542369Y-65098514D01*
X154542000Y-65105328D01*
X154542000Y-65727885D01*
X136080604Y-65727885D01*
X136213007Y-62484000D01*
X147422496Y-62484000D01*
X147442458Y-62673928D01*
X147501473Y-62855556D01*
X147596960Y-63020944D01*
X147601378Y-63025851D01*
X147601379Y-63025852D01*
X147701572Y-63137128D01*
X147724747Y-63162866D01*
X147879248Y-63275118D01*
X147885276Y-63277802D01*
X147885278Y-63277803D01*
X148047681Y-63350109D01*
X148053712Y-63352794D01*
X148147112Y-63372647D01*
X148234056Y-63391128D01*
X148234061Y-63391128D01*
X148240513Y-63392500D01*
X148431487Y-63392500D01*
X148437939Y-63391128D01*
X148437944Y-63391128D01*
X148524888Y-63372647D01*
X148618288Y-63352794D01*
X148624319Y-63350109D01*
X148786722Y-63277803D01*
X148786724Y-63277802D01*
X148792752Y-63275118D01*
X148879423Y-63212148D01*
X148925671Y-63178546D01*
X148947253Y-63162866D01*
X148951668Y-63157963D01*
X148956580Y-63153540D01*
X148957705Y-63154789D01*
X149011014Y-63121949D01*
X149044200Y-63117500D01*
X155115233Y-63117500D01*
X155126416Y-63118027D01*
X155133909Y-63119702D01*
X155141835Y-63119453D01*
X155141836Y-63119453D01*
X155201986Y-63117562D01*
X155205945Y-63117500D01*
X155233856Y-63117500D01*
X155233856Y-63117632D01*
X155265158Y-63119932D01*
X155352513Y-63138500D01*
X155543487Y-63138500D01*
X155549939Y-63137128D01*
X155549944Y-63137128D01*
X155648696Y-63116137D01*
X155730288Y-63098794D01*
X155736319Y-63096109D01*
X155898722Y-63023803D01*
X155898724Y-63023802D01*
X155904752Y-63021118D01*
X156059253Y-62908866D01*
X156081792Y-62883834D01*
X156182621Y-62771852D01*
X156182622Y-62771851D01*
X156187040Y-62766944D01*
X156282527Y-62601556D01*
X156341542Y-62419928D01*
X156361504Y-62230000D01*
X156341542Y-62040072D01*
X156282527Y-61858444D01*
X156187040Y-61693056D01*
X156059253Y-61551134D01*
X155904752Y-61438882D01*
X155898724Y-61436198D01*
X155898722Y-61436197D01*
X155736319Y-61363891D01*
X155736318Y-61363891D01*
X155730288Y-61361206D01*
X155636887Y-61341353D01*
X155549944Y-61322872D01*
X155549939Y-61322872D01*
X155543487Y-61321500D01*
X155352513Y-61321500D01*
X155346061Y-61322872D01*
X155346056Y-61322872D01*
X155259113Y-61341353D01*
X155165712Y-61361206D01*
X155159682Y-61363891D01*
X155159681Y-61363891D01*
X154997278Y-61436197D01*
X154997276Y-61436198D01*
X154991248Y-61438882D01*
X154836747Y-61551134D01*
X154708960Y-61693056D01*
X154705659Y-61698774D01*
X154654432Y-61787501D01*
X154603049Y-61836494D01*
X154545313Y-61850500D01*
X149044200Y-61850500D01*
X148976079Y-61830498D01*
X148956853Y-61814157D01*
X148956580Y-61814460D01*
X148951668Y-61810037D01*
X148947253Y-61805134D01*
X148800862Y-61698774D01*
X148798094Y-61696763D01*
X148798093Y-61696762D01*
X148792752Y-61692882D01*
X148786724Y-61690198D01*
X148786722Y-61690197D01*
X148624319Y-61617891D01*
X148624318Y-61617891D01*
X148618288Y-61615206D01*
X148524887Y-61595353D01*
X148437944Y-61576872D01*
X148437939Y-61576872D01*
X148431487Y-61575500D01*
X148240513Y-61575500D01*
X148234061Y-61576872D01*
X148234056Y-61576872D01*
X148147113Y-61595353D01*
X148053712Y-61615206D01*
X148047682Y-61617891D01*
X148047681Y-61617891D01*
X147885278Y-61690197D01*
X147885276Y-61690198D01*
X147879248Y-61692882D01*
X147873907Y-61696762D01*
X147873906Y-61696763D01*
X147871138Y-61698774D01*
X147724747Y-61805134D01*
X147720326Y-61810044D01*
X147720325Y-61810045D01*
X147676747Y-61858444D01*
X147596960Y-61947056D01*
X147501473Y-62112444D01*
X147442458Y-62294072D01*
X147422496Y-62484000D01*
X136213007Y-62484000D01*
X136482558Y-55880000D01*
X148692496Y-55880000D01*
X148693186Y-55886565D01*
X148711220Y-56058145D01*
X148712458Y-56069928D01*
X148771473Y-56251556D01*
X148866960Y-56416944D01*
X148994747Y-56558866D01*
X149149248Y-56671118D01*
X149155276Y-56673802D01*
X149155278Y-56673803D01*
X149317681Y-56746109D01*
X149323712Y-56748794D01*
X149417112Y-56768647D01*
X149504056Y-56787128D01*
X149504061Y-56787128D01*
X149510513Y-56788500D01*
X149701487Y-56788500D01*
X149707939Y-56787128D01*
X149707944Y-56787128D01*
X149794887Y-56768647D01*
X149888288Y-56748794D01*
X149894319Y-56746109D01*
X150056722Y-56673803D01*
X150056724Y-56673802D01*
X150062752Y-56671118D01*
X150217253Y-56558866D01*
X150345040Y-56416944D01*
X150440527Y-56251556D01*
X150499542Y-56069928D01*
X150500781Y-56058145D01*
X150516907Y-55904708D01*
X150543920Y-55839051D01*
X150553122Y-55828782D01*
X150847501Y-55534404D01*
X150909813Y-55500379D01*
X150936596Y-55497500D01*
X155501800Y-55497500D01*
X155569921Y-55517502D01*
X155589147Y-55533843D01*
X155589420Y-55533540D01*
X155594332Y-55537963D01*
X155598747Y-55542866D01*
X155620329Y-55558546D01*
X155722207Y-55632565D01*
X155753248Y-55655118D01*
X155759276Y-55657802D01*
X155759278Y-55657803D01*
X155831756Y-55690072D01*
X155927712Y-55732794D01*
X156021113Y-55752647D01*
X156108056Y-55771128D01*
X156108061Y-55771128D01*
X156114513Y-55772500D01*
X156305487Y-55772500D01*
X156311939Y-55771128D01*
X156311944Y-55771128D01*
X156398887Y-55752647D01*
X156492288Y-55732794D01*
X156588244Y-55690072D01*
X156660722Y-55657803D01*
X156660724Y-55657802D01*
X156666752Y-55655118D01*
X156697794Y-55632565D01*
X156746057Y-55597499D01*
X156821253Y-55542866D01*
X156857400Y-55502721D01*
X156944621Y-55405852D01*
X156944622Y-55405851D01*
X156949040Y-55400944D01*
X157044527Y-55235556D01*
X157103542Y-55053928D01*
X157104275Y-55046959D01*
X157122814Y-54870565D01*
X157123504Y-54864000D01*
X157115453Y-54787402D01*
X157104232Y-54680635D01*
X157104232Y-54680633D01*
X157103542Y-54674072D01*
X157044527Y-54492444D01*
X156949040Y-54327056D01*
X156932882Y-54309110D01*
X156825675Y-54190045D01*
X156825674Y-54190044D01*
X156821253Y-54185134D01*
X156722157Y-54113136D01*
X156672094Y-54076763D01*
X156672093Y-54076762D01*
X156666752Y-54072882D01*
X156660724Y-54070198D01*
X156660722Y-54070197D01*
X156498319Y-53997891D01*
X156498318Y-53997891D01*
X156492288Y-53995206D01*
X156398888Y-53975353D01*
X156311944Y-53956872D01*
X156311939Y-53956872D01*
X156305487Y-53955500D01*
X156114513Y-53955500D01*
X156108061Y-53956872D01*
X156108056Y-53956872D01*
X156021113Y-53975353D01*
X155927712Y-53995206D01*
X155921682Y-53997891D01*
X155921681Y-53997891D01*
X155759278Y-54070197D01*
X155759276Y-54070198D01*
X155753248Y-54072882D01*
X155747907Y-54076762D01*
X155747906Y-54076763D01*
X155620329Y-54169454D01*
X155598747Y-54185134D01*
X155594332Y-54190037D01*
X155589420Y-54194460D01*
X155588295Y-54193211D01*
X155534986Y-54226051D01*
X155501800Y-54230500D01*
X150700767Y-54230500D01*
X150689584Y-54229973D01*
X150682091Y-54228298D01*
X150674165Y-54228547D01*
X150674164Y-54228547D01*
X150614001Y-54230438D01*
X150610043Y-54230500D01*
X150582144Y-54230500D01*
X150578154Y-54231004D01*
X150566320Y-54231936D01*
X150522111Y-54233326D01*
X150514497Y-54235538D01*
X150514492Y-54235539D01*
X150502659Y-54238977D01*
X150483296Y-54242988D01*
X150463203Y-54245526D01*
X150455836Y-54248443D01*
X150455831Y-54248444D01*
X150422092Y-54261802D01*
X150410865Y-54265646D01*
X150368407Y-54277982D01*
X150361581Y-54282019D01*
X150350972Y-54288293D01*
X150333224Y-54296988D01*
X150314383Y-54304448D01*
X150307967Y-54309110D01*
X150307966Y-54309110D01*
X150278613Y-54330436D01*
X150268693Y-54336952D01*
X150237465Y-54355420D01*
X150237462Y-54355422D01*
X150230638Y-54359458D01*
X150216317Y-54373779D01*
X150201284Y-54386619D01*
X150184893Y-54398528D01*
X150179843Y-54404632D01*
X150179838Y-54404637D01*
X150156707Y-54432598D01*
X150148717Y-54441379D01*
X149655499Y-54934596D01*
X149593187Y-54968621D01*
X149566404Y-54971500D01*
X149510513Y-54971500D01*
X149504061Y-54972872D01*
X149504056Y-54972872D01*
X149432647Y-54988051D01*
X149323712Y-55011206D01*
X149317682Y-55013891D01*
X149317681Y-55013891D01*
X149155278Y-55086197D01*
X149155276Y-55086198D01*
X149149248Y-55088882D01*
X149143907Y-55092762D01*
X149143906Y-55092763D01*
X149093843Y-55129136D01*
X148994747Y-55201134D01*
X148990326Y-55206044D01*
X148990325Y-55206045D01*
X148946747Y-55254444D01*
X148866960Y-55343056D01*
X148863659Y-55348774D01*
X148777792Y-55497500D01*
X148771473Y-55508444D01*
X148712458Y-55690072D01*
X148711768Y-55696633D01*
X148711768Y-55696635D01*
X148699920Y-55809365D01*
X148692496Y-55880000D01*
X136482558Y-55880000D01*
X136519713Y-54969702D01*
X136520601Y-54959050D01*
X136521528Y-54951710D01*
X136523500Y-54944030D01*
X136523500Y-54934287D01*
X136523902Y-54932918D01*
X136524493Y-54928239D01*
X136525248Y-54928334D01*
X136543502Y-54866166D01*
X136575437Y-54832352D01*
X136575650Y-54832197D01*
X136590412Y-54821472D01*
X136595462Y-54815368D01*
X136595467Y-54815363D01*
X136618598Y-54787402D01*
X136626588Y-54778621D01*
X137552258Y-53852952D01*
X137560537Y-53845418D01*
X137567018Y-53841305D01*
X137613644Y-53791653D01*
X137616398Y-53788812D01*
X137636135Y-53769075D01*
X137638615Y-53765878D01*
X137646320Y-53756856D01*
X137656943Y-53745544D01*
X137676586Y-53724626D01*
X137680405Y-53717680D01*
X137680407Y-53717677D01*
X137686348Y-53706871D01*
X137697199Y-53690352D01*
X137701661Y-53684599D01*
X137709614Y-53674346D01*
X137712759Y-53667077D01*
X137712762Y-53667073D01*
X137727174Y-53633768D01*
X137732391Y-53623118D01*
X137753695Y-53584365D01*
X137755668Y-53576683D01*
X137758733Y-53564743D01*
X137765137Y-53546039D01*
X137770033Y-53534725D01*
X137770034Y-53534722D01*
X137773181Y-53527450D01*
X137774421Y-53519623D01*
X137774423Y-53519617D01*
X137780099Y-53483781D01*
X137782505Y-53472161D01*
X137791528Y-53437016D01*
X137791528Y-53437015D01*
X137793500Y-53429335D01*
X137793500Y-53409081D01*
X137795051Y-53389370D01*
X137796980Y-53377191D01*
X137796980Y-53377190D01*
X137798220Y-53369362D01*
X137794059Y-53325343D01*
X137793500Y-53313486D01*
X137793500Y-52656763D01*
X137794027Y-52645579D01*
X137795701Y-52638091D01*
X137793562Y-52570032D01*
X137793500Y-52566075D01*
X137793500Y-52538144D01*
X137792994Y-52534138D01*
X137792061Y-52522292D01*
X137790922Y-52486037D01*
X137790673Y-52478110D01*
X137785022Y-52458658D01*
X137781014Y-52439306D01*
X137779468Y-52427068D01*
X137779467Y-52427066D01*
X137778474Y-52419203D01*
X137762194Y-52378086D01*
X137758359Y-52366885D01*
X137746018Y-52324406D01*
X137741985Y-52317587D01*
X137741983Y-52317582D01*
X137735707Y-52306971D01*
X137727010Y-52289221D01*
X137719552Y-52270383D01*
X137693571Y-52234623D01*
X137687053Y-52224701D01*
X137668578Y-52193460D01*
X137668574Y-52193455D01*
X137664542Y-52186637D01*
X137650218Y-52172313D01*
X137637376Y-52157278D01*
X137625472Y-52140893D01*
X137591406Y-52112711D01*
X137582627Y-52104722D01*
X137155652Y-51677747D01*
X137148112Y-51669461D01*
X137144000Y-51662982D01*
X137094348Y-51616356D01*
X137091507Y-51613602D01*
X137071770Y-51593865D01*
X137068573Y-51591385D01*
X137059551Y-51583680D01*
X137033100Y-51558841D01*
X137027321Y-51553414D01*
X137020375Y-51549595D01*
X137020372Y-51549593D01*
X137009566Y-51543652D01*
X136993047Y-51532801D01*
X136987048Y-51528148D01*
X136977041Y-51520386D01*
X136969772Y-51517241D01*
X136969768Y-51517238D01*
X136936463Y-51502826D01*
X136925813Y-51497609D01*
X136887060Y-51476305D01*
X136867437Y-51471267D01*
X136848734Y-51464863D01*
X136837420Y-51459967D01*
X136837419Y-51459967D01*
X136830145Y-51456819D01*
X136822322Y-51455580D01*
X136822312Y-51455577D01*
X136786476Y-51449901D01*
X136774856Y-51447495D01*
X136739711Y-51438472D01*
X136739710Y-51438472D01*
X136732030Y-51436500D01*
X136711776Y-51436500D01*
X136692065Y-51434949D01*
X136679886Y-51433020D01*
X136672057Y-51431780D01*
X136664165Y-51432526D01*
X136628039Y-51435941D01*
X136616181Y-51436500D01*
X136598200Y-51436500D01*
X136530079Y-51416498D01*
X136510853Y-51400157D01*
X136510580Y-51400460D01*
X136505668Y-51396037D01*
X136501253Y-51391134D01*
X136346752Y-51278882D01*
X136340724Y-51276198D01*
X136340722Y-51276197D01*
X136178319Y-51203891D01*
X136178318Y-51203891D01*
X136172288Y-51201206D01*
X136078888Y-51181353D01*
X135991944Y-51162872D01*
X135991939Y-51162872D01*
X135985487Y-51161500D01*
X135794513Y-51161500D01*
X135788061Y-51162872D01*
X135788056Y-51162872D01*
X135701112Y-51181353D01*
X135607712Y-51201206D01*
X135601682Y-51203891D01*
X135601681Y-51203891D01*
X135439278Y-51276197D01*
X135439276Y-51276198D01*
X135433248Y-51278882D01*
X135278747Y-51391134D01*
X135274326Y-51396044D01*
X135274325Y-51396045D01*
X135165203Y-51517238D01*
X135150960Y-51533056D01*
X135136073Y-51558841D01*
X135059229Y-51691939D01*
X135055473Y-51698444D01*
X134996458Y-51880072D01*
X134995768Y-51886633D01*
X134995768Y-51886635D01*
X134991027Y-51931747D01*
X134976496Y-52070000D01*
X134977186Y-52076565D01*
X134993799Y-52234625D01*
X134996458Y-52259928D01*
X135055473Y-52441556D01*
X135058776Y-52447278D01*
X135058777Y-52447279D01*
X135076919Y-52478701D01*
X135150960Y-52606944D01*
X135155375Y-52611847D01*
X135155379Y-52611852D01*
X135237572Y-52703137D01*
X135278747Y-52748866D01*
X135355998Y-52804992D01*
X135427903Y-52857235D01*
X135427906Y-52857236D01*
X135433248Y-52861118D01*
X135434426Y-52861643D01*
X135482058Y-52911599D01*
X135495374Y-52982505D01*
X135487093Y-53061293D01*
X135460080Y-53126949D01*
X135450878Y-53137217D01*
X134971733Y-53616362D01*
X134969632Y-53618415D01*
X134918140Y-53667559D01*
X134913948Y-53674284D01*
X134896380Y-53702468D01*
X134889012Y-53713042D01*
X134880027Y-53724626D01*
X134863801Y-53745544D01*
X134854529Y-53766971D01*
X134845827Y-53783568D01*
X134833472Y-53803390D01*
X134831084Y-53810947D01*
X134821075Y-53842620D01*
X134816570Y-53854690D01*
X134800234Y-53892440D01*
X134798994Y-53900270D01*
X134798993Y-53900273D01*
X134796583Y-53915493D01*
X134792279Y-53933746D01*
X134785243Y-53956010D01*
X134784809Y-53963930D01*
X134782992Y-53997082D01*
X134781630Y-54009897D01*
X134776435Y-54042698D01*
X134775195Y-54050528D01*
X134775941Y-54058419D01*
X134775941Y-54058420D01*
X134777392Y-54073770D01*
X134777762Y-54092523D01*
X134026092Y-67808774D01*
X134002393Y-67875698D01*
X133993917Y-67886189D01*
X133888924Y-68002796D01*
X133880960Y-68011641D01*
X133833822Y-68093286D01*
X133790841Y-68167732D01*
X133785473Y-68177029D01*
X133726458Y-68358657D01*
X133725768Y-68365218D01*
X133725768Y-68365220D01*
X133708879Y-68525912D01*
X133706496Y-68548585D01*
X132909500Y-68548585D01*
X132909500Y-53649954D01*
X132929502Y-53581833D01*
X132983158Y-53535340D01*
X133031542Y-53524016D01*
X133038575Y-53523795D01*
X133045987Y-53523562D01*
X133049945Y-53523500D01*
X133077856Y-53523500D01*
X133081791Y-53523003D01*
X133081856Y-53522995D01*
X133093693Y-53522062D01*
X133125951Y-53521048D01*
X133129970Y-53520922D01*
X133137889Y-53520673D01*
X133157343Y-53515021D01*
X133176700Y-53511013D01*
X133188930Y-53509468D01*
X133188931Y-53509468D01*
X133196797Y-53508474D01*
X133229949Y-53495348D01*
X133276333Y-53486500D01*
X133445487Y-53486500D01*
X133451939Y-53485128D01*
X133451944Y-53485128D01*
X133538888Y-53466647D01*
X133632288Y-53446794D01*
X133689311Y-53421406D01*
X133800722Y-53371803D01*
X133800724Y-53371802D01*
X133806752Y-53369118D01*
X133961253Y-53256866D01*
X134089040Y-53114944D01*
X134184527Y-52949556D01*
X134243542Y-52767928D01*
X134245138Y-52752749D01*
X134262814Y-52584565D01*
X134263504Y-52578000D01*
X134257194Y-52517966D01*
X134244232Y-52394635D01*
X134244232Y-52394633D01*
X134243542Y-52388072D01*
X134184527Y-52206444D01*
X134173092Y-52186637D01*
X134105751Y-52070000D01*
X134089040Y-52041056D01*
X133977324Y-51916982D01*
X133965675Y-51904045D01*
X133965674Y-51904044D01*
X133961253Y-51899134D01*
X133820605Y-51796947D01*
X133812094Y-51790763D01*
X133812093Y-51790762D01*
X133806752Y-51786882D01*
X133800724Y-51784198D01*
X133800722Y-51784197D01*
X133638319Y-51711891D01*
X133638318Y-51711891D01*
X133632288Y-51709206D01*
X133522078Y-51685780D01*
X133451944Y-51670872D01*
X133451939Y-51670872D01*
X133445487Y-51669500D01*
X133254513Y-51669500D01*
X133248061Y-51670872D01*
X133248056Y-51670872D01*
X133177922Y-51685780D01*
X133067712Y-51709206D01*
X133061682Y-51711891D01*
X133061681Y-51711891D01*
X132899278Y-51784197D01*
X132899276Y-51784198D01*
X132893248Y-51786882D01*
X132868522Y-51804847D01*
X132801656Y-51828704D01*
X132732504Y-51812624D01*
X132683024Y-51761711D01*
X132674629Y-51741846D01*
X132662569Y-51704728D01*
X132662568Y-51704726D01*
X132660527Y-51698444D01*
X132656772Y-51691939D01*
X132579927Y-51558841D01*
X132565040Y-51533056D01*
X132550798Y-51517238D01*
X132441675Y-51396045D01*
X132441674Y-51396044D01*
X132437253Y-51391134D01*
X132282752Y-51278882D01*
X132276724Y-51276198D01*
X132276722Y-51276197D01*
X132114319Y-51203891D01*
X132114318Y-51203891D01*
X132108288Y-51201206D01*
X132014888Y-51181353D01*
X131927944Y-51162872D01*
X131927939Y-51162872D01*
X131921487Y-51161500D01*
X131730513Y-51161500D01*
X131724061Y-51162872D01*
X131724056Y-51162872D01*
X131637112Y-51181353D01*
X131543712Y-51201206D01*
X131537682Y-51203891D01*
X131537681Y-51203891D01*
X131375278Y-51276197D01*
X131375276Y-51276198D01*
X131369248Y-51278882D01*
X131214747Y-51391134D01*
X131210326Y-51396044D01*
X131210325Y-51396045D01*
X131101203Y-51517238D01*
X131086960Y-51533056D01*
X131072073Y-51558841D01*
X130995229Y-51691939D01*
X130991473Y-51698444D01*
X130932458Y-51880072D01*
X130931768Y-51886633D01*
X130931768Y-51886635D01*
X130927027Y-51931747D01*
X130912496Y-52070000D01*
X130913186Y-52076565D01*
X130929799Y-52234625D01*
X130932458Y-52259928D01*
X130991473Y-52441556D01*
X130994776Y-52447278D01*
X130994777Y-52447279D01*
X131012919Y-52478701D01*
X131086960Y-52606944D01*
X131160137Y-52688215D01*
X131190853Y-52752221D01*
X131192500Y-52772524D01*
X131192500Y-66894498D01*
X131172498Y-66962619D01*
X131118842Y-67009112D01*
X131048568Y-67019216D01*
X130983988Y-66989722D01*
X130945604Y-66929996D01*
X130942732Y-66918108D01*
X130942556Y-66917187D01*
X130934495Y-66874928D01*
X130856599Y-66635189D01*
X130838182Y-66578507D01*
X130838182Y-66578506D01*
X130836956Y-66574734D01*
X130818468Y-66535445D01*
X130704250Y-66292717D01*
X130704246Y-66292710D01*
X130702562Y-66289131D01*
X130533432Y-66022625D01*
X130332233Y-65779418D01*
X130296647Y-65746000D01*
X130143978Y-65602635D01*
X130102140Y-65563346D01*
X129846779Y-65377816D01*
X129570179Y-65225753D01*
X129566510Y-65224300D01*
X129566505Y-65224298D01*
X129280372Y-65111010D01*
X129280371Y-65111010D01*
X129276702Y-65109557D01*
X128970975Y-65031060D01*
X128657821Y-64991500D01*
X128342179Y-64991500D01*
X128029025Y-65031060D01*
X127723298Y-65109557D01*
X127719629Y-65111010D01*
X127719628Y-65111010D01*
X127433495Y-65224298D01*
X127433490Y-65224300D01*
X127429821Y-65225753D01*
X127153221Y-65377816D01*
X126897860Y-65563346D01*
X126856022Y-65602635D01*
X126703354Y-65746000D01*
X126667767Y-65779418D01*
X126466568Y-66022625D01*
X126297438Y-66289131D01*
X126295754Y-66292710D01*
X126295750Y-66292717D01*
X126181532Y-66535445D01*
X126163044Y-66574734D01*
X126161818Y-66578506D01*
X126161818Y-66578507D01*
X126143401Y-66635189D01*
X126065505Y-66874928D01*
X126006359Y-67184980D01*
X125994498Y-67373506D01*
X125989476Y-67453345D01*
X125988833Y-67463559D01*
X125986540Y-67500000D01*
X124839500Y-67500000D01*
X124839500Y-67127793D01*
X124841732Y-67104184D01*
X124841790Y-67103881D01*
X124841790Y-67103877D01*
X124843275Y-67096094D01*
X124839749Y-67040049D01*
X124839500Y-67032138D01*
X124839500Y-67016144D01*
X124837494Y-67000270D01*
X124836751Y-66992402D01*
X124836583Y-66989722D01*
X124833860Y-66946448D01*
X124833723Y-66944263D01*
X124833723Y-66944262D01*
X124833225Y-66936350D01*
X124830679Y-66928513D01*
X124825506Y-66905369D01*
X124825468Y-66905065D01*
X124825467Y-66905060D01*
X124824474Y-66897203D01*
X124821558Y-66889838D01*
X124821557Y-66889834D01*
X124803801Y-66844989D01*
X124801129Y-66837570D01*
X124783764Y-66784125D01*
X124779514Y-66777428D01*
X124779350Y-66777169D01*
X124768585Y-66756042D01*
X124768471Y-66755754D01*
X124768468Y-66755749D01*
X124765552Y-66748383D01*
X124760896Y-66741975D01*
X124760893Y-66741969D01*
X124732542Y-66702948D01*
X124728092Y-66696401D01*
X124726015Y-66693128D01*
X124698000Y-66648982D01*
X124691993Y-66643341D01*
X124676312Y-66625554D01*
X124676134Y-66625309D01*
X124676132Y-66625307D01*
X124671472Y-66618893D01*
X124665362Y-66613838D01*
X124628204Y-66583097D01*
X124622270Y-66577866D01*
X124587102Y-66544842D01*
X124587099Y-66544840D01*
X124581321Y-66539414D01*
X124574097Y-66535442D01*
X124554494Y-66522119D01*
X124554254Y-66521920D01*
X124554247Y-66521916D01*
X124548144Y-66516867D01*
X124497324Y-66492953D01*
X124490292Y-66489371D01*
X124441060Y-66462305D01*
X124433385Y-66460335D01*
X124433379Y-66460332D01*
X124433081Y-66460256D01*
X124410772Y-66452224D01*
X124410497Y-66452094D01*
X124410489Y-66452091D01*
X124403318Y-66448717D01*
X124348151Y-66438194D01*
X124340442Y-66436471D01*
X124306449Y-66427743D01*
X124293707Y-66424471D01*
X124293706Y-66424471D01*
X124286030Y-66422500D01*
X124277793Y-66422500D01*
X124254184Y-66420268D01*
X124253881Y-66420210D01*
X124253877Y-66420210D01*
X124246094Y-66418725D01*
X124190049Y-66422251D01*
X124182138Y-66422500D01*
X122882200Y-66422500D01*
X122814079Y-66402498D01*
X122794853Y-66386157D01*
X122794580Y-66386460D01*
X122789668Y-66382037D01*
X122785253Y-66377134D01*
X122763671Y-66361454D01*
X122636094Y-66268763D01*
X122636093Y-66268762D01*
X122630752Y-66264882D01*
X122624724Y-66262198D01*
X122624722Y-66262197D01*
X122462319Y-66189891D01*
X122462318Y-66189891D01*
X122456288Y-66187206D01*
X122343721Y-66163279D01*
X122275944Y-66148872D01*
X122275939Y-66148872D01*
X122269487Y-66147500D01*
X122078513Y-66147500D01*
X122072061Y-66148872D01*
X122072056Y-66148872D01*
X122004279Y-66163279D01*
X121891712Y-66187206D01*
X121885682Y-66189891D01*
X121885681Y-66189891D01*
X121723278Y-66262197D01*
X121723276Y-66262198D01*
X121717248Y-66264882D01*
X121711907Y-66268762D01*
X121711906Y-66268763D01*
X121661843Y-66305136D01*
X121562747Y-66377134D01*
X121558326Y-66382044D01*
X121558325Y-66382045D01*
X121480257Y-66468749D01*
X121434960Y-66519056D01*
X121410531Y-66561369D01*
X121348464Y-66668872D01*
X121339473Y-66684444D01*
X121280458Y-66866072D01*
X121279768Y-66872633D01*
X121279768Y-66872635D01*
X121264869Y-67014397D01*
X121260496Y-67056000D01*
X121261186Y-67062565D01*
X121277788Y-67220521D01*
X121280458Y-67245928D01*
X121339473Y-67427556D01*
X121434960Y-67592944D01*
X121447338Y-67606691D01*
X121478054Y-67670697D01*
X121469290Y-67741150D01*
X121447339Y-67775307D01*
X121434960Y-67789056D01*
X121431659Y-67794774D01*
X121354148Y-67929027D01*
X121339473Y-67954444D01*
X121280458Y-68136072D01*
X121279768Y-68142633D01*
X121279768Y-68142635D01*
X121264268Y-68290110D01*
X121260496Y-68326000D01*
X108060724Y-68326000D01*
X108022527Y-68208444D01*
X108004851Y-68177828D01*
X107999022Y-68167732D01*
X107982284Y-68098736D01*
X108005505Y-68031645D01*
X108034080Y-68002796D01*
X108047909Y-67992749D01*
X108047911Y-67992747D01*
X108053253Y-67988866D01*
X108127825Y-67906045D01*
X108176621Y-67851852D01*
X108176622Y-67851851D01*
X108181040Y-67846944D01*
X108263309Y-67704450D01*
X108273223Y-67687279D01*
X108273224Y-67687278D01*
X108276527Y-67681556D01*
X108335542Y-67499928D01*
X108339365Y-67463559D01*
X108354814Y-67316565D01*
X108355504Y-67310000D01*
X108346262Y-67222069D01*
X108336232Y-67126635D01*
X108336232Y-67126633D01*
X108335542Y-67120072D01*
X108276527Y-66938444D01*
X108252717Y-66897203D01*
X108184343Y-66778777D01*
X108184341Y-66778774D01*
X108181040Y-66773056D01*
X108144864Y-66732878D01*
X108114147Y-66668872D01*
X108112500Y-66648568D01*
X108112500Y-65786000D01*
X119228496Y-65786000D01*
X119248458Y-65975928D01*
X119307473Y-66157556D01*
X119310776Y-66163278D01*
X119310777Y-66163279D01*
X119331678Y-66199481D01*
X119402960Y-66322944D01*
X119407378Y-66327851D01*
X119407379Y-66327852D01*
X119494375Y-66424471D01*
X119530747Y-66464866D01*
X119597676Y-66513493D01*
X119677026Y-66571144D01*
X119685248Y-66577118D01*
X119691276Y-66579802D01*
X119691278Y-66579803D01*
X119845728Y-66648568D01*
X119859712Y-66654794D01*
X119953112Y-66674647D01*
X120040056Y-66693128D01*
X120040061Y-66693128D01*
X120046513Y-66694500D01*
X120237487Y-66694500D01*
X120243939Y-66693128D01*
X120243944Y-66693128D01*
X120330888Y-66674647D01*
X120424288Y-66654794D01*
X120438272Y-66648568D01*
X120592722Y-66579803D01*
X120592724Y-66579802D01*
X120598752Y-66577118D01*
X120606975Y-66571144D01*
X120686324Y-66513493D01*
X120753253Y-66464866D01*
X120789625Y-66424471D01*
X120876621Y-66327852D01*
X120876622Y-66327851D01*
X120881040Y-66322944D01*
X120927572Y-66242349D01*
X120978954Y-66193357D01*
X120999635Y-66184923D01*
X121014524Y-66180342D01*
X126260344Y-64566243D01*
X126331335Y-64565327D01*
X126348640Y-64571561D01*
X126463712Y-64622794D01*
X126505340Y-64631642D01*
X126644056Y-64661128D01*
X126644061Y-64661128D01*
X126650513Y-64662500D01*
X126841487Y-64662500D01*
X126847939Y-64661128D01*
X126847944Y-64661128D01*
X126937931Y-64642000D01*
X127028288Y-64622794D01*
X127034321Y-64620108D01*
X127196722Y-64547803D01*
X127196724Y-64547802D01*
X127202752Y-64545118D01*
X127357253Y-64432866D01*
X127485040Y-64290944D01*
X127580527Y-64125556D01*
X127639542Y-63943928D01*
X127659504Y-63754000D01*
X127639542Y-63564072D01*
X127580527Y-63382444D01*
X127485040Y-63217056D01*
X127439744Y-63166749D01*
X127361675Y-63080045D01*
X127361674Y-63080044D01*
X127357253Y-63075134D01*
X127202752Y-62962882D01*
X127196724Y-62960198D01*
X127196722Y-62960197D01*
X127034319Y-62887891D01*
X127034318Y-62887891D01*
X127028288Y-62885206D01*
X126915721Y-62861279D01*
X126847944Y-62846872D01*
X126847939Y-62846872D01*
X126841487Y-62845500D01*
X126650513Y-62845500D01*
X126644061Y-62846872D01*
X126644056Y-62846872D01*
X126576279Y-62861279D01*
X126463712Y-62885206D01*
X126457682Y-62887891D01*
X126457681Y-62887891D01*
X126295278Y-62960197D01*
X126295276Y-62960198D01*
X126289248Y-62962882D01*
X126134747Y-63075134D01*
X126130326Y-63080044D01*
X126130325Y-63080045D01*
X126052257Y-63166749D01*
X126006960Y-63217056D01*
X125960429Y-63297650D01*
X125909046Y-63346643D01*
X125888366Y-63355076D01*
X121251792Y-64781715D01*
X120627656Y-64973757D01*
X120556665Y-64974673D01*
X120539360Y-64968439D01*
X120424288Y-64917206D01*
X120382660Y-64908358D01*
X120243944Y-64878872D01*
X120243939Y-64878872D01*
X120237487Y-64877500D01*
X120046513Y-64877500D01*
X120040061Y-64878872D01*
X120040056Y-64878872D01*
X119953112Y-64897353D01*
X119859712Y-64917206D01*
X119853682Y-64919891D01*
X119853681Y-64919891D01*
X119691278Y-64992197D01*
X119691276Y-64992198D01*
X119685248Y-64994882D01*
X119679907Y-64998762D01*
X119679906Y-64998763D01*
X119635453Y-65031060D01*
X119530747Y-65107134D01*
X119402960Y-65249056D01*
X119307473Y-65414444D01*
X119248458Y-65596072D01*
X119228496Y-65786000D01*
X108112500Y-65786000D01*
X108112500Y-56411789D01*
X108132502Y-56343668D01*
X108146649Y-56325537D01*
X108149683Y-56322306D01*
X108152415Y-56319489D01*
X108172134Y-56299770D01*
X108174612Y-56296575D01*
X108182318Y-56287553D01*
X108207158Y-56261101D01*
X108212586Y-56255321D01*
X108222346Y-56237568D01*
X108233199Y-56221045D01*
X108240753Y-56211306D01*
X108245613Y-56205041D01*
X108263176Y-56164457D01*
X108268383Y-56153827D01*
X108289695Y-56115060D01*
X108291666Y-56107383D01*
X108291668Y-56107378D01*
X108294732Y-56095442D01*
X108301138Y-56076730D01*
X108306034Y-56065417D01*
X108309181Y-56058145D01*
X108316097Y-56014481D01*
X108318504Y-56002860D01*
X108327528Y-55967711D01*
X108327528Y-55967710D01*
X108329500Y-55960030D01*
X108329500Y-55939769D01*
X108331051Y-55920058D01*
X108332979Y-55907885D01*
X108334219Y-55900057D01*
X108330059Y-55856046D01*
X108329500Y-55844189D01*
X108329500Y-55686594D01*
X108347292Y-55626000D01*
X121006496Y-55626000D01*
X121007186Y-55632565D01*
X121021894Y-55772500D01*
X121026458Y-55815928D01*
X121085473Y-55997556D01*
X121180960Y-56162944D01*
X121185378Y-56167851D01*
X121185379Y-56167852D01*
X121304325Y-56299955D01*
X121308747Y-56304866D01*
X121463248Y-56417118D01*
X121469276Y-56419802D01*
X121469278Y-56419803D01*
X121631681Y-56492109D01*
X121637712Y-56494794D01*
X121731113Y-56514647D01*
X121818056Y-56533128D01*
X121818061Y-56533128D01*
X121824513Y-56534500D01*
X122015487Y-56534500D01*
X122021939Y-56533128D01*
X122021944Y-56533128D01*
X122108888Y-56514647D01*
X122202288Y-56494794D01*
X122208319Y-56492109D01*
X122370722Y-56419803D01*
X122370724Y-56419802D01*
X122376752Y-56417118D01*
X122531253Y-56304866D01*
X122535668Y-56299963D01*
X122540580Y-56295540D01*
X122541705Y-56296789D01*
X122595014Y-56263949D01*
X122628200Y-56259500D01*
X127307800Y-56259500D01*
X127375921Y-56279502D01*
X127395147Y-56295843D01*
X127395420Y-56295540D01*
X127400332Y-56299963D01*
X127404747Y-56304866D01*
X127559248Y-56417118D01*
X127565276Y-56419802D01*
X127565278Y-56419803D01*
X127727681Y-56492109D01*
X127733712Y-56494794D01*
X127827113Y-56514647D01*
X127914056Y-56533128D01*
X127914061Y-56533128D01*
X127920513Y-56534500D01*
X128111487Y-56534500D01*
X128117939Y-56533128D01*
X128117944Y-56533128D01*
X128204888Y-56514647D01*
X128298288Y-56494794D01*
X128304319Y-56492109D01*
X128466722Y-56419803D01*
X128466724Y-56419802D01*
X128472752Y-56417118D01*
X128627253Y-56304866D01*
X128631675Y-56299955D01*
X128750621Y-56167852D01*
X128750622Y-56167851D01*
X128755040Y-56162944D01*
X128850527Y-55997556D01*
X128909542Y-55815928D01*
X128914107Y-55772500D01*
X128928814Y-55632565D01*
X128929504Y-55626000D01*
X128926508Y-55597499D01*
X128910232Y-55442635D01*
X128910232Y-55442633D01*
X128909542Y-55436072D01*
X128850527Y-55254444D01*
X128844145Y-55243389D01*
X128804813Y-55175266D01*
X128755040Y-55089056D01*
X128729064Y-55060206D01*
X128631675Y-54952045D01*
X128631674Y-54952044D01*
X128627253Y-54947134D01*
X128508070Y-54860542D01*
X128478094Y-54838763D01*
X128478093Y-54838762D01*
X128472752Y-54834882D01*
X128466724Y-54832198D01*
X128466722Y-54832197D01*
X128304319Y-54759891D01*
X128304318Y-54759891D01*
X128298288Y-54757206D01*
X128204887Y-54737353D01*
X128117944Y-54718872D01*
X128117939Y-54718872D01*
X128111487Y-54717500D01*
X127920513Y-54717500D01*
X127914061Y-54718872D01*
X127914056Y-54718872D01*
X127827113Y-54737353D01*
X127733712Y-54757206D01*
X127727682Y-54759891D01*
X127727681Y-54759891D01*
X127565278Y-54832197D01*
X127565276Y-54832198D01*
X127559248Y-54834882D01*
X127553907Y-54838762D01*
X127553906Y-54838763D01*
X127489197Y-54885777D01*
X127404747Y-54947134D01*
X127400332Y-54952037D01*
X127395420Y-54956460D01*
X127394295Y-54955211D01*
X127340986Y-54988051D01*
X127307800Y-54992500D01*
X122628200Y-54992500D01*
X122560079Y-54972498D01*
X122540853Y-54956157D01*
X122540580Y-54956460D01*
X122535668Y-54952037D01*
X122531253Y-54947134D01*
X122446803Y-54885777D01*
X122382094Y-54838763D01*
X122382093Y-54838762D01*
X122376752Y-54834882D01*
X122370724Y-54832198D01*
X122370722Y-54832197D01*
X122208319Y-54759891D01*
X122208318Y-54759891D01*
X122202288Y-54757206D01*
X122108887Y-54737353D01*
X122021944Y-54718872D01*
X122021939Y-54718872D01*
X122015487Y-54717500D01*
X121824513Y-54717500D01*
X121818061Y-54718872D01*
X121818056Y-54718872D01*
X121731113Y-54737353D01*
X121637712Y-54757206D01*
X121631682Y-54759891D01*
X121631681Y-54759891D01*
X121469278Y-54832197D01*
X121469276Y-54832198D01*
X121463248Y-54834882D01*
X121457907Y-54838762D01*
X121457906Y-54838763D01*
X121427930Y-54860542D01*
X121308747Y-54947134D01*
X121304326Y-54952044D01*
X121304325Y-54952045D01*
X121206937Y-55060206D01*
X121180960Y-55089056D01*
X121131187Y-55175266D01*
X121091856Y-55243389D01*
X121085473Y-55254444D01*
X121026458Y-55436072D01*
X121025768Y-55442633D01*
X121025768Y-55442635D01*
X121009492Y-55597499D01*
X121006496Y-55626000D01*
X108347292Y-55626000D01*
X108349502Y-55618473D01*
X108366405Y-55597499D01*
X109332637Y-54631267D01*
X109357592Y-54611909D01*
X109359840Y-54610580D01*
X109359843Y-54610578D01*
X109366667Y-54606542D01*
X109380988Y-54592221D01*
X109396022Y-54579380D01*
X109405999Y-54572131D01*
X109412412Y-54567472D01*
X109440603Y-54533395D01*
X109448593Y-54524616D01*
X110120247Y-53852962D01*
X110128537Y-53845418D01*
X110135018Y-53841305D01*
X110181659Y-53791637D01*
X110184413Y-53788796D01*
X110204134Y-53769075D01*
X110206612Y-53765880D01*
X110214318Y-53756858D01*
X110239158Y-53730406D01*
X110239159Y-53730405D01*
X110244586Y-53724626D01*
X110254347Y-53706871D01*
X110265199Y-53690350D01*
X110272753Y-53680611D01*
X110277613Y-53674346D01*
X110295176Y-53633762D01*
X110300383Y-53623132D01*
X110321695Y-53584365D01*
X110323666Y-53576688D01*
X110323668Y-53576683D01*
X110326732Y-53564747D01*
X110333138Y-53546035D01*
X110338034Y-53534722D01*
X110341181Y-53527450D01*
X110343150Y-53515022D01*
X110348097Y-53483786D01*
X110350504Y-53472165D01*
X110359528Y-53437016D01*
X110359528Y-53437015D01*
X110361500Y-53429335D01*
X110361500Y-53409074D01*
X110363051Y-53389363D01*
X110364979Y-53377190D01*
X110366219Y-53369362D01*
X110362059Y-53325351D01*
X110361500Y-53313494D01*
X110361500Y-52910763D01*
X110362027Y-52899579D01*
X110363701Y-52892091D01*
X110361562Y-52824032D01*
X110361500Y-52820075D01*
X110361500Y-52792144D01*
X110360994Y-52788138D01*
X110360061Y-52776292D01*
X110359996Y-52774206D01*
X110358673Y-52732110D01*
X110353022Y-52712658D01*
X110349014Y-52693306D01*
X110347468Y-52681068D01*
X110347467Y-52681066D01*
X110346474Y-52673203D01*
X110330194Y-52632086D01*
X110326359Y-52620885D01*
X110314018Y-52578406D01*
X110309985Y-52571587D01*
X110309983Y-52571582D01*
X110303707Y-52560971D01*
X110295010Y-52543221D01*
X110287552Y-52524383D01*
X110261571Y-52488623D01*
X110255053Y-52478701D01*
X110236578Y-52447460D01*
X110236574Y-52447455D01*
X110232542Y-52440637D01*
X110218218Y-52426313D01*
X110205376Y-52411278D01*
X110193472Y-52394893D01*
X110159406Y-52366711D01*
X110150627Y-52358722D01*
X109723652Y-51931747D01*
X109716112Y-51923461D01*
X109712000Y-51916982D01*
X109662348Y-51870356D01*
X109659507Y-51867602D01*
X109639770Y-51847865D01*
X109636573Y-51845385D01*
X109627551Y-51837680D01*
X109623400Y-51833782D01*
X109595321Y-51807414D01*
X109588375Y-51803595D01*
X109588372Y-51803593D01*
X109577566Y-51797652D01*
X109561047Y-51786801D01*
X109557690Y-51784197D01*
X109545041Y-51774386D01*
X109537772Y-51771241D01*
X109537768Y-51771238D01*
X109504463Y-51756826D01*
X109493813Y-51751609D01*
X109455060Y-51730305D01*
X109435437Y-51725267D01*
X109416734Y-51718863D01*
X109405420Y-51713967D01*
X109405419Y-51713967D01*
X109398145Y-51710819D01*
X109390322Y-51709580D01*
X109390312Y-51709577D01*
X109354476Y-51703901D01*
X109342856Y-51701495D01*
X109307711Y-51692472D01*
X109307710Y-51692472D01*
X109300030Y-51690500D01*
X109279776Y-51690500D01*
X109260065Y-51688949D01*
X109257534Y-51688548D01*
X109240057Y-51685780D01*
X109232165Y-51686526D01*
X109196039Y-51689941D01*
X109184181Y-51690500D01*
X108202814Y-51690500D01*
X108191630Y-51689973D01*
X108184142Y-51688299D01*
X108176219Y-51688548D01*
X108116084Y-51690438D01*
X108112126Y-51690500D01*
X108084195Y-51690500D01*
X108080280Y-51690995D01*
X108080276Y-51690995D01*
X108080218Y-51691003D01*
X108080189Y-51691006D01*
X108068347Y-51691939D01*
X108024161Y-51693327D01*
X108006795Y-51698372D01*
X108004709Y-51698978D01*
X107985357Y-51702986D01*
X107973119Y-51704532D01*
X107973117Y-51704533D01*
X107965254Y-51705526D01*
X107924137Y-51721806D01*
X107912936Y-51725641D01*
X107870457Y-51737982D01*
X107863638Y-51742015D01*
X107863633Y-51742017D01*
X107853022Y-51748293D01*
X107835272Y-51756990D01*
X107816434Y-51764448D01*
X107810018Y-51769109D01*
X107810017Y-51769110D01*
X107796072Y-51779242D01*
X107785557Y-51786882D01*
X107780676Y-51790428D01*
X107770752Y-51796947D01*
X107739511Y-51815422D01*
X107739506Y-51815426D01*
X107732688Y-51819458D01*
X107718364Y-51833782D01*
X107703332Y-51846621D01*
X107686944Y-51858528D01*
X107686943Y-51858529D01*
X107685696Y-51856813D01*
X107632159Y-51883901D01*
X107609254Y-51886000D01*
X107558064Y-51886000D01*
X107551612Y-51887372D01*
X107551607Y-51887372D01*
X107473169Y-51904045D01*
X107371263Y-51925706D01*
X107365233Y-51928391D01*
X107365232Y-51928391D01*
X107202829Y-52000697D01*
X107202827Y-52000698D01*
X107196799Y-52003382D01*
X107042298Y-52115634D01*
X107037877Y-52120544D01*
X107037876Y-52120545D01*
X107004802Y-52157278D01*
X106914511Y-52257556D01*
X106819024Y-52422944D01*
X106760009Y-52604572D01*
X106759319Y-52611133D01*
X106759319Y-52611135D01*
X106748649Y-52712658D01*
X106740047Y-52794500D01*
X106740737Y-52801065D01*
X106752267Y-52910763D01*
X106760009Y-52984428D01*
X106819024Y-53166056D01*
X106914511Y-53331444D01*
X106918929Y-53336351D01*
X106918930Y-53336352D01*
X106995513Y-53421406D01*
X107042298Y-53473366D01*
X107114332Y-53525702D01*
X107168073Y-53564747D01*
X107196799Y-53585618D01*
X107202827Y-53588302D01*
X107202829Y-53588303D01*
X107287878Y-53626169D01*
X107341974Y-53672149D01*
X107362623Y-53740077D01*
X107343271Y-53808385D01*
X107325724Y-53830371D01*
X106287747Y-54868348D01*
X106279461Y-54875888D01*
X106272982Y-54880000D01*
X106267557Y-54885777D01*
X106226357Y-54929651D01*
X106223602Y-54932493D01*
X106203865Y-54952230D01*
X106201385Y-54955427D01*
X106193682Y-54964447D01*
X106163414Y-54996679D01*
X106159595Y-55003625D01*
X106159593Y-55003628D01*
X106153652Y-55014434D01*
X106142801Y-55030953D01*
X106130386Y-55046959D01*
X106127241Y-55054228D01*
X106127238Y-55054232D01*
X106112826Y-55087537D01*
X106107609Y-55098187D01*
X106086305Y-55136940D01*
X106084334Y-55144615D01*
X106084334Y-55144616D01*
X106081267Y-55156562D01*
X106074863Y-55175266D01*
X106066819Y-55193855D01*
X106065580Y-55201678D01*
X106065577Y-55201688D01*
X106059901Y-55237524D01*
X106057495Y-55249144D01*
X106054521Y-55260729D01*
X106046500Y-55291970D01*
X106046500Y-55312224D01*
X106044949Y-55331934D01*
X106041780Y-55351943D01*
X98508500Y-55351943D01*
X98508500Y-50634500D01*
X98528502Y-50566379D01*
X98582158Y-50519886D01*
X98634500Y-50508500D01*
X157365500Y-50508500D01*
X157433621Y-50528502D01*
G37*
%TD.AperFunction*%
%TD*%
M02*
