%TF.GenerationSoftware,KiCad,Pcbnew,(6.0.7)*%
%TF.CreationDate,2024-10-25T16:04:52-07:00*%
%TF.ProjectId,segment_blinky,7365676d-656e-4745-9f62-6c696e6b792e,rev?*%
%TF.SameCoordinates,Original*%
%TF.FileFunction,Drillmap*%
%TF.FilePolarity,Positive*%
%FSLAX45Y45*%
G04 Gerber Fmt 4.5, Leading zero omitted, Abs format (unit mm)*
G04 Created by KiCad (PCBNEW (6.0.7)) date 2024-10-25 16:04:52*
%MOMM*%
%LPD*%
G01*
G04 APERTURE LIST*
%ADD10C,0.100000*%
%ADD11C,0.200000*%
G04 APERTURE END LIST*
D10*
X9800000Y-5000000D02*
X15800000Y-5000000D01*
X15800000Y-5000000D02*
X15800000Y-8864600D01*
X15800000Y-8864600D02*
X9800000Y-8864600D01*
X9800000Y-8864600D02*
X9800000Y-5000000D01*
X13050000Y-6750000D02*
G75*
G03*
X13050000Y-6750000I-200000J0D01*
G01*
D11*
X10052619Y-9180076D02*
X10052619Y-8980076D01*
X10100238Y-8980076D01*
X10128810Y-8989600D01*
X10147857Y-9008648D01*
X10157381Y-9027695D01*
X10166905Y-9065790D01*
X10166905Y-9094362D01*
X10157381Y-9132457D01*
X10147857Y-9151505D01*
X10128810Y-9170552D01*
X10100238Y-9180076D01*
X10052619Y-9180076D01*
X10252619Y-9180076D02*
X10252619Y-9046743D01*
X10252619Y-9084838D02*
X10262143Y-9065790D01*
X10271667Y-9056267D01*
X10290714Y-9046743D01*
X10309762Y-9046743D01*
X10376429Y-9180076D02*
X10376429Y-9046743D01*
X10376429Y-8980076D02*
X10366905Y-8989600D01*
X10376429Y-8999124D01*
X10385952Y-8989600D01*
X10376429Y-8980076D01*
X10376429Y-8999124D01*
X10500238Y-9180076D02*
X10481190Y-9170552D01*
X10471667Y-9151505D01*
X10471667Y-8980076D01*
X10605000Y-9180076D02*
X10585952Y-9170552D01*
X10576429Y-9151505D01*
X10576429Y-8980076D01*
X10833571Y-9180076D02*
X10833571Y-8980076D01*
X10900238Y-9122933D01*
X10966905Y-8980076D01*
X10966905Y-9180076D01*
X11147857Y-9180076D02*
X11147857Y-9075314D01*
X11138333Y-9056267D01*
X11119286Y-9046743D01*
X11081190Y-9046743D01*
X11062143Y-9056267D01*
X11147857Y-9170552D02*
X11128810Y-9180076D01*
X11081190Y-9180076D01*
X11062143Y-9170552D01*
X11052619Y-9151505D01*
X11052619Y-9132457D01*
X11062143Y-9113410D01*
X11081190Y-9103886D01*
X11128810Y-9103886D01*
X11147857Y-9094362D01*
X11243095Y-9046743D02*
X11243095Y-9246743D01*
X11243095Y-9056267D02*
X11262143Y-9046743D01*
X11300238Y-9046743D01*
X11319286Y-9056267D01*
X11328809Y-9065790D01*
X11338333Y-9084838D01*
X11338333Y-9141981D01*
X11328809Y-9161029D01*
X11319286Y-9170552D01*
X11300238Y-9180076D01*
X11262143Y-9180076D01*
X11243095Y-9170552D01*
X11424048Y-9161029D02*
X11433571Y-9170552D01*
X11424048Y-9180076D01*
X11414524Y-9170552D01*
X11424048Y-9161029D01*
X11424048Y-9180076D01*
X11424048Y-9056267D02*
X11433571Y-9065790D01*
X11424048Y-9075314D01*
X11414524Y-9065790D01*
X11424048Y-9056267D01*
X11424048Y-9075314D01*
M02*
