M48
; DRILL file {KiCad (6.0.7)} date Fri Oct 25 16:04:51 2024
; FORMAT={-:-/ absolute / inch / decimal}
; #@! TF.CreationDate,2024-10-25T16:04:51-07:00
; #@! TF.GenerationSoftware,Kicad,Pcbnew,(6.0.7)
; #@! TF.FileFunction,Plated,1,2,PTH
FMAT,2
INCH
; #@! TA.AperFunction,Plated,PTH,ViaDrill
T1C0.0157
; #@! TA.AperFunction,Plated,PTH,ComponentDrill
T2C0.0394
%
G90
G05
T1
X4.02Y-2.31
X4.09Y-2.38
X4.19Y-3.03
X4.22Y-2.7
X4.23Y-2.65
X4.2383Y-2.0785
X4.26Y-2.54
X4.2898Y-2.0902
X4.31Y-3.26
X4.32Y-2.18
X4.43Y-3.23
X4.43Y-3.45
X4.4487Y-2.7587
X4.57Y-3.22
X4.58Y-3.44
X4.68Y-2.14
X4.68Y-3.09
X4.7266Y-2.7934
X4.73Y-2.59
X4.8Y-2.19
X4.81Y-2.64
X4.81Y-2.69
X4.82Y-2.4
X4.85Y-3.34
X4.85Y-3.4
X4.99Y-2.51
X4.99Y-3.46
X5.0364Y-3.354
X5.0367Y-3.4055
X5.04Y-2.19
X5.12Y-3.4
X5.19Y-2.05
X5.25Y-2.07
X5.29Y-3.24
X5.3Y-2.6988
X5.3Y-3.03
X5.3312Y-2.6501
X5.3495Y-2.7805
X5.35Y-2.05
X5.36Y-3.26
X5.37Y-2.09
X5.44Y-2.21
X5.5Y-2.15
X5.54Y-2.76
X5.65Y-3.23
X5.7393Y-3.2307
X5.7892Y-2.1492
X5.8Y-2.99
X5.84Y-2.46
X5.85Y-2.77
X5.85Y-3.4
X5.89Y-2.2
X5.89Y-2.53
X5.9Y-2.7
X5.91Y-2.65
X5.93Y-2.28
X5.95Y-3.35
X5.95Y-3.41
X6.11Y-3.46
X6.12Y-2.45
X6.12Y-3.29
X6.15Y-2.16
X6.17Y-3.42
T2
X3.9409Y-2.5984
X3.9409Y-2.6984
X3.9409Y-2.7984
X3.9409Y-2.8984
X6.1378Y-2.5984
X6.1378Y-2.6984
X6.1378Y-2.7984
X6.1378Y-2.8984
T0
M30
