%TF.GenerationSoftware,KiCad,Pcbnew,(6.0.7)*%
%TF.CreationDate,2024-10-25T16:04:52-07:00*%
%TF.ProjectId,segment_blinky,7365676d-656e-4745-9f62-6c696e6b792e,rev?*%
%TF.SameCoordinates,Original*%
%TF.FileFunction,Drillmap*%
%TF.FilePolarity,Positive*%
%FSLAX45Y45*%
G04 Gerber Fmt 4.5, Leading zero omitted, Abs format (unit mm)*
G04 Created by KiCad (PCBNEW (6.0.7)) date 2024-10-25 16:04:52*
%MOMM*%
%LPD*%
G01*
G04 APERTURE LIST*
%ADD10C,0.100000*%
%ADD11C,0.200000*%
%ADD12C,0.040000*%
G04 APERTURE END LIST*
D10*
X9800000Y-5000000D02*
X15800000Y-5000000D01*
X15800000Y-5000000D02*
X15800000Y-8864600D01*
X15800000Y-8864600D02*
X9800000Y-8864600D01*
X9800000Y-8864600D02*
X9800000Y-5000000D01*
X13050000Y-6750000D02*
G75*
G03*
X13050000Y-6750000I-200000J0D01*
G01*
D11*
D12*
X10190800Y-5847400D02*
X10230800Y-5887400D01*
X10230800Y-5847400D02*
X10190800Y-5887400D01*
X10368600Y-6025200D02*
X10408600Y-6065200D01*
X10408600Y-6025200D02*
X10368600Y-6065200D01*
X10622600Y-7676200D02*
X10662600Y-7716200D01*
X10662600Y-7676200D02*
X10622600Y-7716200D01*
X10698800Y-6838000D02*
X10738800Y-6878000D01*
X10738800Y-6838000D02*
X10698800Y-6878000D01*
X10724200Y-6711000D02*
X10764200Y-6751000D01*
X10764200Y-6711000D02*
X10724200Y-6751000D01*
X10745355Y-5259450D02*
X10785355Y-5299450D01*
X10785355Y-5259450D02*
X10745355Y-5299450D01*
X10800400Y-6431600D02*
X10840400Y-6471600D01*
X10840400Y-6431600D02*
X10800400Y-6471600D01*
X10876170Y-5289030D02*
X10916170Y-5329030D01*
X10916170Y-5289030D02*
X10876170Y-5329030D01*
X10927400Y-8260400D02*
X10967400Y-8300400D01*
X10967400Y-8260400D02*
X10927400Y-8300400D01*
X10952800Y-5517200D02*
X10992800Y-5557200D01*
X10992800Y-5517200D02*
X10952800Y-5557200D01*
X11232200Y-8184200D02*
X11272200Y-8224200D01*
X11272200Y-8184200D02*
X11232200Y-8224200D01*
X11232200Y-8743000D02*
X11272200Y-8783000D01*
X11272200Y-8743000D02*
X11232200Y-8783000D01*
X11279610Y-6987010D02*
X11319610Y-7027010D01*
X11319610Y-6987010D02*
X11279610Y-7027010D01*
X11587800Y-8158800D02*
X11627800Y-8198800D01*
X11627800Y-8158800D02*
X11587800Y-8198800D01*
X11613200Y-8717600D02*
X11653200Y-8757600D01*
X11653200Y-8717600D02*
X11613200Y-8757600D01*
X11867200Y-5415600D02*
X11907200Y-5455600D01*
X11907200Y-5415600D02*
X11867200Y-5455600D01*
X11867200Y-7828600D02*
X11907200Y-7868600D01*
X11907200Y-7828600D02*
X11867200Y-7868600D01*
X11985580Y-7075220D02*
X12025580Y-7115220D01*
X12025580Y-7075220D02*
X11985580Y-7115220D01*
X11994200Y-6558600D02*
X12034200Y-6598600D01*
X12034200Y-6558600D02*
X11994200Y-6598600D01*
X12172000Y-5542600D02*
X12212000Y-5582600D01*
X12212000Y-5542600D02*
X12172000Y-5582600D01*
X12197400Y-6685600D02*
X12237400Y-6725600D01*
X12237400Y-6685600D02*
X12197400Y-6725600D01*
X12197400Y-6812600D02*
X12237400Y-6852600D01*
X12237400Y-6812600D02*
X12197400Y-6852600D01*
X12222800Y-6076000D02*
X12262800Y-6116000D01*
X12262800Y-6076000D02*
X12222800Y-6116000D01*
X12299000Y-8463600D02*
X12339000Y-8503600D01*
X12339000Y-8463600D02*
X12299000Y-8503600D01*
X12299000Y-8616000D02*
X12339000Y-8656000D01*
X12339000Y-8616000D02*
X12299000Y-8656000D01*
X12654600Y-6355400D02*
X12694600Y-6395400D01*
X12694600Y-6355400D02*
X12654600Y-6395400D01*
X12654600Y-8768400D02*
X12694600Y-8808400D01*
X12694600Y-8768400D02*
X12654600Y-8808400D01*
X12772462Y-8499148D02*
X12812462Y-8539148D01*
X12812462Y-8499148D02*
X12772462Y-8539148D01*
X12773304Y-8629997D02*
X12813304Y-8669997D01*
X12813304Y-8629997D02*
X12773304Y-8669997D01*
X12781600Y-5542600D02*
X12821600Y-5582600D01*
X12821600Y-5542600D02*
X12781600Y-5582600D01*
X12984800Y-8616000D02*
X13024800Y-8656000D01*
X13024800Y-8616000D02*
X12984800Y-8656000D01*
X13162600Y-5187000D02*
X13202600Y-5227000D01*
X13202600Y-5187000D02*
X13162600Y-5227000D01*
X13315000Y-5237800D02*
X13355000Y-5277800D01*
X13355000Y-5237800D02*
X13315000Y-5277800D01*
X13416600Y-8209600D02*
X13456600Y-8249600D01*
X13456600Y-8209600D02*
X13416600Y-8249600D01*
X13442000Y-6834858D02*
X13482000Y-6874858D01*
X13482000Y-6834858D02*
X13442000Y-6874858D01*
X13442000Y-7676200D02*
X13482000Y-7716200D01*
X13482000Y-7676200D02*
X13442000Y-7716200D01*
X13521337Y-6711172D02*
X13561337Y-6751172D01*
X13561337Y-6711172D02*
X13521337Y-6751172D01*
X13567610Y-7042590D02*
X13607610Y-7082590D01*
X13607610Y-7042590D02*
X13567610Y-7082590D01*
X13569000Y-5187000D02*
X13609000Y-5227000D01*
X13609000Y-5187000D02*
X13569000Y-5227000D01*
X13594400Y-8260400D02*
X13634400Y-8300400D01*
X13634400Y-8260400D02*
X13594400Y-8300400D01*
X13619800Y-5288600D02*
X13659800Y-5328600D01*
X13659800Y-5288600D02*
X13619800Y-5328600D01*
X13797600Y-5593400D02*
X13837600Y-5633400D01*
X13837600Y-5593400D02*
X13797600Y-5633400D01*
X13950000Y-5441000D02*
X13990000Y-5481000D01*
X13990000Y-5441000D02*
X13950000Y-5481000D01*
X14051600Y-6990400D02*
X14091600Y-7030400D01*
X14091600Y-6990400D02*
X14051600Y-7030400D01*
X14331000Y-8184200D02*
X14371000Y-8224200D01*
X14371000Y-8184200D02*
X14331000Y-8224200D01*
X14557914Y-8185886D02*
X14597914Y-8225886D01*
X14597914Y-8185886D02*
X14557914Y-8225886D01*
X14684495Y-5438895D02*
X14724495Y-5478895D01*
X14724495Y-5438895D02*
X14684495Y-5478895D01*
X14712000Y-7574600D02*
X14752000Y-7614600D01*
X14752000Y-7574600D02*
X14712000Y-7614600D01*
X14813600Y-6228400D02*
X14853600Y-6268400D01*
X14853600Y-6228400D02*
X14813600Y-6268400D01*
X14839000Y-7015800D02*
X14879000Y-7055800D01*
X14879000Y-7015800D02*
X14839000Y-7055800D01*
X14839000Y-8616000D02*
X14879000Y-8656000D01*
X14879000Y-8616000D02*
X14839000Y-8656000D01*
X14940600Y-5568000D02*
X14980600Y-5608000D01*
X14980600Y-5568000D02*
X14940600Y-5608000D01*
X14940600Y-6406200D02*
X14980600Y-6446200D01*
X14980600Y-6406200D02*
X14940600Y-6446200D01*
X14966000Y-6838000D02*
X15006000Y-6878000D01*
X15006000Y-6838000D02*
X14966000Y-6878000D01*
X14991400Y-6711000D02*
X15031400Y-6751000D01*
X15031400Y-6711000D02*
X14991400Y-6751000D01*
X15042200Y-5771200D02*
X15082200Y-5811200D01*
X15082200Y-5771200D02*
X15042200Y-5811200D01*
X15093000Y-8489000D02*
X15133000Y-8529000D01*
X15133000Y-8489000D02*
X15093000Y-8529000D01*
X15093000Y-8641400D02*
X15133000Y-8681400D01*
X15133000Y-8641400D02*
X15093000Y-8681400D01*
X15499400Y-8768400D02*
X15539400Y-8808400D01*
X15539400Y-8768400D02*
X15499400Y-8808400D01*
X15524800Y-6203000D02*
X15564800Y-6243000D01*
X15564800Y-6203000D02*
X15524800Y-6243000D01*
X15524800Y-8336600D02*
X15564800Y-8376600D01*
X15564800Y-8336600D02*
X15524800Y-8376600D01*
X15601000Y-5466400D02*
X15641000Y-5506400D01*
X15641000Y-5466400D02*
X15601000Y-5506400D01*
X15651800Y-8666800D02*
X15691800Y-8706800D01*
X15691800Y-8666800D02*
X15651800Y-8706800D01*
D10*
X10060000Y-6600000D02*
G75*
G03*
X10060000Y-6600000I-50000J0D01*
G01*
X10060000Y-6854000D02*
G75*
G03*
X10060000Y-6854000I-50000J0D01*
G01*
X10060000Y-7108000D02*
G75*
G03*
X10060000Y-7108000I-50000J0D01*
G01*
X10060000Y-7362000D02*
G75*
G03*
X10060000Y-7362000I-50000J0D01*
G01*
X15640000Y-6600000D02*
G75*
G03*
X15640000Y-6600000I-50000J0D01*
G01*
X15640000Y-6854000D02*
G75*
G03*
X15640000Y-6854000I-50000J0D01*
G01*
X15640000Y-7108000D02*
G75*
G03*
X15640000Y-7108000I-50000J0D01*
G01*
X15640000Y-7362000D02*
G75*
G03*
X15640000Y-7362000I-50000J0D01*
G01*
D11*
X10052619Y-9180076D02*
X10052619Y-8980076D01*
X10100238Y-8980076D01*
X10128810Y-8989600D01*
X10147857Y-9008648D01*
X10157381Y-9027695D01*
X10166905Y-9065790D01*
X10166905Y-9094362D01*
X10157381Y-9132457D01*
X10147857Y-9151505D01*
X10128810Y-9170552D01*
X10100238Y-9180076D01*
X10052619Y-9180076D01*
X10252619Y-9180076D02*
X10252619Y-9046743D01*
X10252619Y-9084838D02*
X10262143Y-9065790D01*
X10271667Y-9056267D01*
X10290714Y-9046743D01*
X10309762Y-9046743D01*
X10376429Y-9180076D02*
X10376429Y-9046743D01*
X10376429Y-8980076D02*
X10366905Y-8989600D01*
X10376429Y-8999124D01*
X10385952Y-8989600D01*
X10376429Y-8980076D01*
X10376429Y-8999124D01*
X10500238Y-9180076D02*
X10481190Y-9170552D01*
X10471667Y-9151505D01*
X10471667Y-8980076D01*
X10605000Y-9180076D02*
X10585952Y-9170552D01*
X10576429Y-9151505D01*
X10576429Y-8980076D01*
X10833571Y-9180076D02*
X10833571Y-8980076D01*
X10900238Y-9122933D01*
X10966905Y-8980076D01*
X10966905Y-9180076D01*
X11147857Y-9180076D02*
X11147857Y-9075314D01*
X11138333Y-9056267D01*
X11119286Y-9046743D01*
X11081190Y-9046743D01*
X11062143Y-9056267D01*
X11147857Y-9170552D02*
X11128810Y-9180076D01*
X11081190Y-9180076D01*
X11062143Y-9170552D01*
X11052619Y-9151505D01*
X11052619Y-9132457D01*
X11062143Y-9113410D01*
X11081190Y-9103886D01*
X11128810Y-9103886D01*
X11147857Y-9094362D01*
X11243095Y-9046743D02*
X11243095Y-9246743D01*
X11243095Y-9056267D02*
X11262143Y-9046743D01*
X11300238Y-9046743D01*
X11319286Y-9056267D01*
X11328809Y-9065790D01*
X11338333Y-9084838D01*
X11338333Y-9141981D01*
X11328809Y-9161029D01*
X11319286Y-9170552D01*
X11300238Y-9180076D01*
X11262143Y-9180076D01*
X11243095Y-9170552D01*
X11424048Y-9161029D02*
X11433571Y-9170552D01*
X11424048Y-9180076D01*
X11414524Y-9170552D01*
X11424048Y-9161029D01*
X11424048Y-9180076D01*
X11424048Y-9056267D02*
X11433571Y-9065790D01*
X11424048Y-9075314D01*
X11414524Y-9065790D01*
X11424048Y-9056267D01*
X11424048Y-9075314D01*
D12*
X9755000Y-9489600D02*
X9795000Y-9529600D01*
X9795000Y-9489600D02*
X9755000Y-9529600D01*
D11*
X10090714Y-9400076D02*
X10109762Y-9400076D01*
X10128810Y-9409600D01*
X10138333Y-9419124D01*
X10147857Y-9438171D01*
X10157381Y-9476267D01*
X10157381Y-9523886D01*
X10147857Y-9561981D01*
X10138333Y-9581029D01*
X10128810Y-9590552D01*
X10109762Y-9600076D01*
X10090714Y-9600076D01*
X10071667Y-9590552D01*
X10062143Y-9581029D01*
X10052619Y-9561981D01*
X10043095Y-9523886D01*
X10043095Y-9476267D01*
X10052619Y-9438171D01*
X10062143Y-9419124D01*
X10071667Y-9409600D01*
X10090714Y-9400076D01*
X10243095Y-9581029D02*
X10252619Y-9590552D01*
X10243095Y-9600076D01*
X10233571Y-9590552D01*
X10243095Y-9581029D01*
X10243095Y-9600076D01*
X10424048Y-9466743D02*
X10424048Y-9600076D01*
X10376429Y-9390552D02*
X10328810Y-9533410D01*
X10452619Y-9533410D01*
X10566905Y-9400076D02*
X10585952Y-9400076D01*
X10605000Y-9409600D01*
X10614524Y-9419124D01*
X10624048Y-9438171D01*
X10633571Y-9476267D01*
X10633571Y-9523886D01*
X10624048Y-9561981D01*
X10614524Y-9581029D01*
X10605000Y-9590552D01*
X10585952Y-9600076D01*
X10566905Y-9600076D01*
X10547857Y-9590552D01*
X10538333Y-9581029D01*
X10528810Y-9561981D01*
X10519286Y-9523886D01*
X10519286Y-9476267D01*
X10528810Y-9438171D01*
X10538333Y-9419124D01*
X10547857Y-9409600D01*
X10566905Y-9400076D01*
X10757381Y-9400076D02*
X10776429Y-9400076D01*
X10795476Y-9409600D01*
X10805000Y-9419124D01*
X10814524Y-9438171D01*
X10824048Y-9476267D01*
X10824048Y-9523886D01*
X10814524Y-9561981D01*
X10805000Y-9581029D01*
X10795476Y-9590552D01*
X10776429Y-9600076D01*
X10757381Y-9600076D01*
X10738333Y-9590552D01*
X10728810Y-9581029D01*
X10719286Y-9561981D01*
X10709762Y-9523886D01*
X10709762Y-9476267D01*
X10719286Y-9438171D01*
X10728810Y-9419124D01*
X10738333Y-9409600D01*
X10757381Y-9400076D01*
X10909762Y-9600076D02*
X10909762Y-9466743D01*
X10909762Y-9485790D02*
X10919286Y-9476267D01*
X10938333Y-9466743D01*
X10966905Y-9466743D01*
X10985952Y-9476267D01*
X10995476Y-9495314D01*
X10995476Y-9600076D01*
X10995476Y-9495314D02*
X11005000Y-9476267D01*
X11024048Y-9466743D01*
X11052619Y-9466743D01*
X11071667Y-9476267D01*
X11081190Y-9495314D01*
X11081190Y-9600076D01*
X11176429Y-9600076D02*
X11176429Y-9466743D01*
X11176429Y-9485790D02*
X11185952Y-9476267D01*
X11205000Y-9466743D01*
X11233571Y-9466743D01*
X11252619Y-9476267D01*
X11262143Y-9495314D01*
X11262143Y-9600076D01*
X11262143Y-9495314D02*
X11271667Y-9476267D01*
X11290714Y-9466743D01*
X11319286Y-9466743D01*
X11338333Y-9476267D01*
X11347857Y-9495314D01*
X11347857Y-9600076D01*
X11738333Y-9390552D02*
X11566905Y-9647695D01*
X11995476Y-9400076D02*
X12014524Y-9400076D01*
X12033571Y-9409600D01*
X12043095Y-9419124D01*
X12052619Y-9438171D01*
X12062143Y-9476267D01*
X12062143Y-9523886D01*
X12052619Y-9561981D01*
X12043095Y-9581029D01*
X12033571Y-9590552D01*
X12014524Y-9600076D01*
X11995476Y-9600076D01*
X11976428Y-9590552D01*
X11966905Y-9581029D01*
X11957381Y-9561981D01*
X11947857Y-9523886D01*
X11947857Y-9476267D01*
X11957381Y-9438171D01*
X11966905Y-9419124D01*
X11976428Y-9409600D01*
X11995476Y-9400076D01*
X12147857Y-9581029D02*
X12157381Y-9590552D01*
X12147857Y-9600076D01*
X12138333Y-9590552D01*
X12147857Y-9581029D01*
X12147857Y-9600076D01*
X12281190Y-9400076D02*
X12300238Y-9400076D01*
X12319286Y-9409600D01*
X12328809Y-9419124D01*
X12338333Y-9438171D01*
X12347857Y-9476267D01*
X12347857Y-9523886D01*
X12338333Y-9561981D01*
X12328809Y-9581029D01*
X12319286Y-9590552D01*
X12300238Y-9600076D01*
X12281190Y-9600076D01*
X12262143Y-9590552D01*
X12252619Y-9581029D01*
X12243095Y-9561981D01*
X12233571Y-9523886D01*
X12233571Y-9476267D01*
X12243095Y-9438171D01*
X12252619Y-9419124D01*
X12262143Y-9409600D01*
X12281190Y-9400076D01*
X12538333Y-9600076D02*
X12424048Y-9600076D01*
X12481190Y-9600076D02*
X12481190Y-9400076D01*
X12462143Y-9428648D01*
X12443095Y-9447695D01*
X12424048Y-9457219D01*
X12719286Y-9400076D02*
X12624048Y-9400076D01*
X12614524Y-9495314D01*
X12624048Y-9485790D01*
X12643095Y-9476267D01*
X12690714Y-9476267D01*
X12709762Y-9485790D01*
X12719286Y-9495314D01*
X12728809Y-9514362D01*
X12728809Y-9561981D01*
X12719286Y-9581029D01*
X12709762Y-9590552D01*
X12690714Y-9600076D01*
X12643095Y-9600076D01*
X12624048Y-9590552D01*
X12614524Y-9581029D01*
X12795476Y-9400076D02*
X12928809Y-9400076D01*
X12843095Y-9600076D01*
X12995476Y-9400076D02*
X12995476Y-9438171D01*
X13071667Y-9400076D02*
X13071667Y-9438171D01*
X13366905Y-9676267D02*
X13357381Y-9666743D01*
X13338333Y-9638171D01*
X13328809Y-9619124D01*
X13319286Y-9590552D01*
X13309762Y-9542933D01*
X13309762Y-9504838D01*
X13319286Y-9457219D01*
X13328809Y-9428648D01*
X13338333Y-9409600D01*
X13357381Y-9381029D01*
X13366905Y-9371505D01*
X13528809Y-9400076D02*
X13490714Y-9400076D01*
X13471667Y-9409600D01*
X13462143Y-9419124D01*
X13443095Y-9447695D01*
X13433571Y-9485790D01*
X13433571Y-9561981D01*
X13443095Y-9581029D01*
X13452619Y-9590552D01*
X13471667Y-9600076D01*
X13509762Y-9600076D01*
X13528809Y-9590552D01*
X13538333Y-9581029D01*
X13547857Y-9561981D01*
X13547857Y-9514362D01*
X13538333Y-9495314D01*
X13528809Y-9485790D01*
X13509762Y-9476267D01*
X13471667Y-9476267D01*
X13452619Y-9485790D01*
X13443095Y-9495314D01*
X13433571Y-9514362D01*
X13614524Y-9400076D02*
X13738333Y-9400076D01*
X13671667Y-9476267D01*
X13700238Y-9476267D01*
X13719286Y-9485790D01*
X13728809Y-9495314D01*
X13738333Y-9514362D01*
X13738333Y-9561981D01*
X13728809Y-9581029D01*
X13719286Y-9590552D01*
X13700238Y-9600076D01*
X13643095Y-9600076D01*
X13624048Y-9590552D01*
X13614524Y-9581029D01*
X13976428Y-9600076D02*
X13976428Y-9400076D01*
X14062143Y-9600076D02*
X14062143Y-9495314D01*
X14052619Y-9476267D01*
X14033571Y-9466743D01*
X14005000Y-9466743D01*
X13985952Y-9476267D01*
X13976428Y-9485790D01*
X14185952Y-9600076D02*
X14166905Y-9590552D01*
X14157381Y-9581029D01*
X14147857Y-9561981D01*
X14147857Y-9504838D01*
X14157381Y-9485790D01*
X14166905Y-9476267D01*
X14185952Y-9466743D01*
X14214524Y-9466743D01*
X14233571Y-9476267D01*
X14243095Y-9485790D01*
X14252619Y-9504838D01*
X14252619Y-9561981D01*
X14243095Y-9581029D01*
X14233571Y-9590552D01*
X14214524Y-9600076D01*
X14185952Y-9600076D01*
X14366905Y-9600076D02*
X14347857Y-9590552D01*
X14338333Y-9571505D01*
X14338333Y-9400076D01*
X14519286Y-9590552D02*
X14500238Y-9600076D01*
X14462143Y-9600076D01*
X14443095Y-9590552D01*
X14433571Y-9571505D01*
X14433571Y-9495314D01*
X14443095Y-9476267D01*
X14462143Y-9466743D01*
X14500238Y-9466743D01*
X14519286Y-9476267D01*
X14528809Y-9495314D01*
X14528809Y-9514362D01*
X14433571Y-9533410D01*
X14605000Y-9590552D02*
X14624048Y-9600076D01*
X14662143Y-9600076D01*
X14681190Y-9590552D01*
X14690714Y-9571505D01*
X14690714Y-9561981D01*
X14681190Y-9542933D01*
X14662143Y-9533410D01*
X14633571Y-9533410D01*
X14614524Y-9523886D01*
X14605000Y-9504838D01*
X14605000Y-9495314D01*
X14614524Y-9476267D01*
X14633571Y-9466743D01*
X14662143Y-9466743D01*
X14681190Y-9476267D01*
X14757381Y-9676267D02*
X14766905Y-9666743D01*
X14785952Y-9638171D01*
X14795476Y-9619124D01*
X14805000Y-9590552D01*
X14814524Y-9542933D01*
X14814524Y-9504838D01*
X14805000Y-9457219D01*
X14795476Y-9428648D01*
X14785952Y-9409600D01*
X14766905Y-9381029D01*
X14757381Y-9371505D01*
D10*
X9795000Y-9773600D02*
G75*
G03*
X9795000Y-9773600I-50000J0D01*
G01*
D11*
X10157381Y-9864076D02*
X10043095Y-9864076D01*
X10100238Y-9864076D02*
X10100238Y-9664076D01*
X10081190Y-9692648D01*
X10062143Y-9711695D01*
X10043095Y-9721219D01*
X10243095Y-9845029D02*
X10252619Y-9854552D01*
X10243095Y-9864076D01*
X10233571Y-9854552D01*
X10243095Y-9845029D01*
X10243095Y-9864076D01*
X10376429Y-9664076D02*
X10395476Y-9664076D01*
X10414524Y-9673600D01*
X10424048Y-9683124D01*
X10433571Y-9702171D01*
X10443095Y-9740267D01*
X10443095Y-9787886D01*
X10433571Y-9825981D01*
X10424048Y-9845029D01*
X10414524Y-9854552D01*
X10395476Y-9864076D01*
X10376429Y-9864076D01*
X10357381Y-9854552D01*
X10347857Y-9845029D01*
X10338333Y-9825981D01*
X10328810Y-9787886D01*
X10328810Y-9740267D01*
X10338333Y-9702171D01*
X10347857Y-9683124D01*
X10357381Y-9673600D01*
X10376429Y-9664076D01*
X10566905Y-9664076D02*
X10585952Y-9664076D01*
X10605000Y-9673600D01*
X10614524Y-9683124D01*
X10624048Y-9702171D01*
X10633571Y-9740267D01*
X10633571Y-9787886D01*
X10624048Y-9825981D01*
X10614524Y-9845029D01*
X10605000Y-9854552D01*
X10585952Y-9864076D01*
X10566905Y-9864076D01*
X10547857Y-9854552D01*
X10538333Y-9845029D01*
X10528810Y-9825981D01*
X10519286Y-9787886D01*
X10519286Y-9740267D01*
X10528810Y-9702171D01*
X10538333Y-9683124D01*
X10547857Y-9673600D01*
X10566905Y-9664076D01*
X10757381Y-9664076D02*
X10776429Y-9664076D01*
X10795476Y-9673600D01*
X10805000Y-9683124D01*
X10814524Y-9702171D01*
X10824048Y-9740267D01*
X10824048Y-9787886D01*
X10814524Y-9825981D01*
X10805000Y-9845029D01*
X10795476Y-9854552D01*
X10776429Y-9864076D01*
X10757381Y-9864076D01*
X10738333Y-9854552D01*
X10728810Y-9845029D01*
X10719286Y-9825981D01*
X10709762Y-9787886D01*
X10709762Y-9740267D01*
X10719286Y-9702171D01*
X10728810Y-9683124D01*
X10738333Y-9673600D01*
X10757381Y-9664076D01*
X10909762Y-9864076D02*
X10909762Y-9730743D01*
X10909762Y-9749790D02*
X10919286Y-9740267D01*
X10938333Y-9730743D01*
X10966905Y-9730743D01*
X10985952Y-9740267D01*
X10995476Y-9759314D01*
X10995476Y-9864076D01*
X10995476Y-9759314D02*
X11005000Y-9740267D01*
X11024048Y-9730743D01*
X11052619Y-9730743D01*
X11071667Y-9740267D01*
X11081190Y-9759314D01*
X11081190Y-9864076D01*
X11176429Y-9864076D02*
X11176429Y-9730743D01*
X11176429Y-9749790D02*
X11185952Y-9740267D01*
X11205000Y-9730743D01*
X11233571Y-9730743D01*
X11252619Y-9740267D01*
X11262143Y-9759314D01*
X11262143Y-9864076D01*
X11262143Y-9759314D02*
X11271667Y-9740267D01*
X11290714Y-9730743D01*
X11319286Y-9730743D01*
X11338333Y-9740267D01*
X11347857Y-9759314D01*
X11347857Y-9864076D01*
X11738333Y-9654552D02*
X11566905Y-9911695D01*
X11995476Y-9664076D02*
X12014524Y-9664076D01*
X12033571Y-9673600D01*
X12043095Y-9683124D01*
X12052619Y-9702171D01*
X12062143Y-9740267D01*
X12062143Y-9787886D01*
X12052619Y-9825981D01*
X12043095Y-9845029D01*
X12033571Y-9854552D01*
X12014524Y-9864076D01*
X11995476Y-9864076D01*
X11976428Y-9854552D01*
X11966905Y-9845029D01*
X11957381Y-9825981D01*
X11947857Y-9787886D01*
X11947857Y-9740267D01*
X11957381Y-9702171D01*
X11966905Y-9683124D01*
X11976428Y-9673600D01*
X11995476Y-9664076D01*
X12147857Y-9845029D02*
X12157381Y-9854552D01*
X12147857Y-9864076D01*
X12138333Y-9854552D01*
X12147857Y-9845029D01*
X12147857Y-9864076D01*
X12281190Y-9664076D02*
X12300238Y-9664076D01*
X12319286Y-9673600D01*
X12328809Y-9683124D01*
X12338333Y-9702171D01*
X12347857Y-9740267D01*
X12347857Y-9787886D01*
X12338333Y-9825981D01*
X12328809Y-9845029D01*
X12319286Y-9854552D01*
X12300238Y-9864076D01*
X12281190Y-9864076D01*
X12262143Y-9854552D01*
X12252619Y-9845029D01*
X12243095Y-9825981D01*
X12233571Y-9787886D01*
X12233571Y-9740267D01*
X12243095Y-9702171D01*
X12252619Y-9683124D01*
X12262143Y-9673600D01*
X12281190Y-9664076D01*
X12414524Y-9664076D02*
X12538333Y-9664076D01*
X12471667Y-9740267D01*
X12500238Y-9740267D01*
X12519286Y-9749790D01*
X12528809Y-9759314D01*
X12538333Y-9778362D01*
X12538333Y-9825981D01*
X12528809Y-9845029D01*
X12519286Y-9854552D01*
X12500238Y-9864076D01*
X12443095Y-9864076D01*
X12424048Y-9854552D01*
X12414524Y-9845029D01*
X12633571Y-9864076D02*
X12671667Y-9864076D01*
X12690714Y-9854552D01*
X12700238Y-9845029D01*
X12719286Y-9816457D01*
X12728809Y-9778362D01*
X12728809Y-9702171D01*
X12719286Y-9683124D01*
X12709762Y-9673600D01*
X12690714Y-9664076D01*
X12652619Y-9664076D01*
X12633571Y-9673600D01*
X12624048Y-9683124D01*
X12614524Y-9702171D01*
X12614524Y-9749790D01*
X12624048Y-9768838D01*
X12633571Y-9778362D01*
X12652619Y-9787886D01*
X12690714Y-9787886D01*
X12709762Y-9778362D01*
X12719286Y-9768838D01*
X12728809Y-9749790D01*
X12900238Y-9730743D02*
X12900238Y-9864076D01*
X12852619Y-9654552D02*
X12805000Y-9797410D01*
X12928809Y-9797410D01*
X12995476Y-9664076D02*
X12995476Y-9702171D01*
X13071667Y-9664076D02*
X13071667Y-9702171D01*
X13366905Y-9940267D02*
X13357381Y-9930743D01*
X13338333Y-9902171D01*
X13328809Y-9883124D01*
X13319286Y-9854552D01*
X13309762Y-9806933D01*
X13309762Y-9768838D01*
X13319286Y-9721219D01*
X13328809Y-9692648D01*
X13338333Y-9673600D01*
X13357381Y-9645029D01*
X13366905Y-9635505D01*
X13471667Y-9749790D02*
X13452619Y-9740267D01*
X13443095Y-9730743D01*
X13433571Y-9711695D01*
X13433571Y-9702171D01*
X13443095Y-9683124D01*
X13452619Y-9673600D01*
X13471667Y-9664076D01*
X13509762Y-9664076D01*
X13528809Y-9673600D01*
X13538333Y-9683124D01*
X13547857Y-9702171D01*
X13547857Y-9711695D01*
X13538333Y-9730743D01*
X13528809Y-9740267D01*
X13509762Y-9749790D01*
X13471667Y-9749790D01*
X13452619Y-9759314D01*
X13443095Y-9768838D01*
X13433571Y-9787886D01*
X13433571Y-9825981D01*
X13443095Y-9845029D01*
X13452619Y-9854552D01*
X13471667Y-9864076D01*
X13509762Y-9864076D01*
X13528809Y-9854552D01*
X13538333Y-9845029D01*
X13547857Y-9825981D01*
X13547857Y-9787886D01*
X13538333Y-9768838D01*
X13528809Y-9759314D01*
X13509762Y-9749790D01*
X13785952Y-9864076D02*
X13785952Y-9664076D01*
X13871667Y-9864076D02*
X13871667Y-9759314D01*
X13862143Y-9740267D01*
X13843095Y-9730743D01*
X13814524Y-9730743D01*
X13795476Y-9740267D01*
X13785952Y-9749790D01*
X13995476Y-9864076D02*
X13976428Y-9854552D01*
X13966905Y-9845029D01*
X13957381Y-9825981D01*
X13957381Y-9768838D01*
X13966905Y-9749790D01*
X13976428Y-9740267D01*
X13995476Y-9730743D01*
X14024048Y-9730743D01*
X14043095Y-9740267D01*
X14052619Y-9749790D01*
X14062143Y-9768838D01*
X14062143Y-9825981D01*
X14052619Y-9845029D01*
X14043095Y-9854552D01*
X14024048Y-9864076D01*
X13995476Y-9864076D01*
X14176428Y-9864076D02*
X14157381Y-9854552D01*
X14147857Y-9835505D01*
X14147857Y-9664076D01*
X14328809Y-9854552D02*
X14309762Y-9864076D01*
X14271667Y-9864076D01*
X14252619Y-9854552D01*
X14243095Y-9835505D01*
X14243095Y-9759314D01*
X14252619Y-9740267D01*
X14271667Y-9730743D01*
X14309762Y-9730743D01*
X14328809Y-9740267D01*
X14338333Y-9759314D01*
X14338333Y-9778362D01*
X14243095Y-9797410D01*
X14414524Y-9854552D02*
X14433571Y-9864076D01*
X14471667Y-9864076D01*
X14490714Y-9854552D01*
X14500238Y-9835505D01*
X14500238Y-9825981D01*
X14490714Y-9806933D01*
X14471667Y-9797410D01*
X14443095Y-9797410D01*
X14424048Y-9787886D01*
X14414524Y-9768838D01*
X14414524Y-9759314D01*
X14424048Y-9740267D01*
X14443095Y-9730743D01*
X14471667Y-9730743D01*
X14490714Y-9740267D01*
X14566905Y-9940267D02*
X14576428Y-9930743D01*
X14595476Y-9902171D01*
X14605000Y-9883124D01*
X14614524Y-9854552D01*
X14624048Y-9806933D01*
X14624048Y-9768838D01*
X14614524Y-9721219D01*
X14605000Y-9692648D01*
X14595476Y-9673600D01*
X14576428Y-9645029D01*
X14566905Y-9635505D01*
M02*
